<?xml version="1.0" encoding="utf-8" standalone="no"?>
<!DOCTYPE svg PUBLIC "-//W3C//DTD SVG 1.1//EN"
  "http://www.w3.org/Graphics/SVG/1.1/DTD/svg11.dtd">
<svg height="288pt" version="1.1" viewBox="0 0 432 288" width="432pt" xmlns="http://www.w3.org/2000/svg" xmlns:xlink="http://www.w3.org/1999/xlink">
 <metadata>
  <rdf:RDF xmlns:cc="http://creativecommons.org/ns#" xmlns:dc="http://purl.org/dc/elements/1.1/" xmlns:rdf="http://www.w3.org/1999/02/22-rdf-syntax-ns#">
   <cc:Work>
    <dc:type rdf:resource="http://purl.org/dc/dcmitype/StillImage"/>
    <dc:date>2021-09-05T00:50:55.312531</dc:date>
    <dc:format>image/svg+xml</dc:format>
    <dc:creator>
     <cc:Agent>
      <dc:title>Matplotlib v3.4.2, https://matplotlib.org/</dc:title>
     </cc:Agent>
    </dc:creator>
   </cc:Work>
  </rdf:RDF>
 </metadata>
 <defs>
  <style type="text/css">*{stroke-linecap:butt;stroke-linejoin:round;}</style>
 </defs>
 <g id="figure_1">
  <g id="patch_1">
   <path d="M 0 288 
L 432 288 
L 432 0 
L 0 0 
z
" style="fill:none;"/>
  </g>
  <g id="axes_1">
   <g id="patch_2">
    <path d="M 54 252 
L 388.8 252 
L 388.8 34.56 
L 54 34.56 
z
" style="fill:#ffffff;"/>
   </g>
   <g id="matplotlib.axis_1">
    <g id="xtick_1">
     <g id="line2d_1">
      <defs>
       <path d="M 0 0 
L 0 3.5 
" id="md33c2c25e5" style="stroke:#000000;stroke-width:0.8;"/>
      </defs>
      <g>
       <use style="stroke:#000000;stroke-width:0.8;" x="100.185214" xlink:href="#md33c2c25e5" y="252"/>
      </g>
     </g>
     <g id="text_1">
      <!-- $\mathdefault{10^{-1}}$ -->
      <g transform="translate(88.435214 266.598437)scale(0.1 -0.1)">
       <defs>
        <path d="M 794 531 
L 1825 531 
L 1825 4091 
L 703 3866 
L 703 4441 
L 1819 4666 
L 2450 4666 
L 2450 531 
L 3481 531 
L 3481 0 
L 794 0 
L 794 531 
z
" id="DejaVuSans-31" transform="scale(0.015625)"/>
        <path d="M 2034 4250 
Q 1547 4250 1301 3770 
Q 1056 3291 1056 2328 
Q 1056 1369 1301 889 
Q 1547 409 2034 409 
Q 2525 409 2770 889 
Q 3016 1369 3016 2328 
Q 3016 3291 2770 3770 
Q 2525 4250 2034 4250 
z
M 2034 4750 
Q 2819 4750 3233 4129 
Q 3647 3509 3647 2328 
Q 3647 1150 3233 529 
Q 2819 -91 2034 -91 
Q 1250 -91 836 529 
Q 422 1150 422 2328 
Q 422 3509 836 4129 
Q 1250 4750 2034 4750 
z
" id="DejaVuSans-30" transform="scale(0.015625)"/>
        <path d="M 678 2272 
L 4684 2272 
L 4684 1741 
L 678 1741 
L 678 2272 
z
" id="DejaVuSans-2212" transform="scale(0.015625)"/>
       </defs>
       <use transform="translate(0 0.684375)" xlink:href="#DejaVuSans-31"/>
       <use transform="translate(63.623047 0.684375)" xlink:href="#DejaVuSans-30"/>
       <use transform="translate(128.203125 38.965625)scale(0.7)" xlink:href="#DejaVuSans-2212"/>
       <use transform="translate(186.855469 38.965625)scale(0.7)" xlink:href="#DejaVuSans-31"/>
      </g>
     </g>
    </g>
    <g id="xtick_2">
     <g id="line2d_2">
      <g>
       <use style="stroke:#000000;stroke-width:0.8;" x="264.39052" xlink:href="#md33c2c25e5" y="252"/>
      </g>
     </g>
     <g id="text_2">
      <!-- $\mathdefault{10^{0}}$ -->
      <g transform="translate(255.59052 266.598437)scale(0.1 -0.1)">
       <use transform="translate(0 0.765625)" xlink:href="#DejaVuSans-31"/>
       <use transform="translate(63.623047 0.765625)" xlink:href="#DejaVuSans-30"/>
       <use transform="translate(128.203125 39.046875)scale(0.7)" xlink:href="#DejaVuSans-30"/>
      </g>
     </g>
    </g>
    <g id="xtick_3">
     <g id="line2d_3">
      <defs>
       <path d="M 0 0 
L 0 2 
" id="m3c13a49a44" style="stroke:#000000;stroke-width:0.6;"/>
      </defs>
      <g>
       <use style="stroke:#000000;stroke-width:0.6;" x="63.756472" xlink:href="#m3c13a49a44" y="252"/>
      </g>
     </g>
    </g>
    <g id="xtick_4">
     <g id="line2d_4">
      <g>
       <use style="stroke:#000000;stroke-width:0.6;" x="74.74949" xlink:href="#m3c13a49a44" y="252"/>
      </g>
     </g>
    </g>
    <g id="xtick_5">
     <g id="line2d_5">
      <g>
       <use style="stroke:#000000;stroke-width:0.6;" x="84.272076" xlink:href="#m3c13a49a44" y="252"/>
      </g>
     </g>
    </g>
    <g id="xtick_6">
     <g id="line2d_6">
      <g>
       <use style="stroke:#000000;stroke-width:0.6;" x="92.671591" xlink:href="#m3c13a49a44" y="252"/>
      </g>
     </g>
    </g>
    <g id="xtick_7">
     <g id="line2d_7">
      <g>
       <use style="stroke:#000000;stroke-width:0.6;" x="149.615937" xlink:href="#m3c13a49a44" y="252"/>
      </g>
     </g>
    </g>
    <g id="xtick_8">
     <g id="line2d_8">
      <g>
       <use style="stroke:#000000;stroke-width:0.6;" x="178.531056" xlink:href="#m3c13a49a44" y="252"/>
      </g>
     </g>
    </g>
    <g id="xtick_9">
     <g id="line2d_9">
      <g>
       <use style="stroke:#000000;stroke-width:0.6;" x="199.046659" xlink:href="#m3c13a49a44" y="252"/>
      </g>
     </g>
    </g>
    <g id="xtick_10">
     <g id="line2d_10">
      <g>
       <use style="stroke:#000000;stroke-width:0.6;" x="214.959798" xlink:href="#m3c13a49a44" y="252"/>
      </g>
     </g>
    </g>
    <g id="xtick_11">
     <g id="line2d_11">
      <g>
       <use style="stroke:#000000;stroke-width:0.6;" x="227.961779" xlink:href="#m3c13a49a44" y="252"/>
      </g>
     </g>
    </g>
    <g id="xtick_12">
     <g id="line2d_12">
      <g>
       <use style="stroke:#000000;stroke-width:0.6;" x="238.954797" xlink:href="#m3c13a49a44" y="252"/>
      </g>
     </g>
    </g>
    <g id="xtick_13">
     <g id="line2d_13">
      <g>
       <use style="stroke:#000000;stroke-width:0.6;" x="248.477382" xlink:href="#m3c13a49a44" y="252"/>
      </g>
     </g>
    </g>
    <g id="xtick_14">
     <g id="line2d_14">
      <g>
       <use style="stroke:#000000;stroke-width:0.6;" x="256.876898" xlink:href="#m3c13a49a44" y="252"/>
      </g>
     </g>
    </g>
    <g id="xtick_15">
     <g id="line2d_15">
      <g>
       <use style="stroke:#000000;stroke-width:0.6;" x="313.821243" xlink:href="#m3c13a49a44" y="252"/>
      </g>
     </g>
    </g>
    <g id="xtick_16">
     <g id="line2d_16">
      <g>
       <use style="stroke:#000000;stroke-width:0.6;" x="342.736362" xlink:href="#m3c13a49a44" y="252"/>
      </g>
     </g>
    </g>
    <g id="xtick_17">
     <g id="line2d_17">
      <g>
       <use style="stroke:#000000;stroke-width:0.6;" x="363.251966" xlink:href="#m3c13a49a44" y="252"/>
      </g>
     </g>
    </g>
    <g id="xtick_18">
     <g id="line2d_18">
      <g>
       <use style="stroke:#000000;stroke-width:0.6;" x="379.165104" xlink:href="#m3c13a49a44" y="252"/>
      </g>
     </g>
    </g>
    <g id="text_3">
     <!-- Avalanche size -->
     <g transform="translate(184.35 280.276563)scale(0.1 -0.1)">
      <defs>
       <path d="M 2188 4044 
L 1331 1722 
L 3047 1722 
L 2188 4044 
z
M 1831 4666 
L 2547 4666 
L 4325 0 
L 3669 0 
L 3244 1197 
L 1141 1197 
L 716 0 
L 50 0 
L 1831 4666 
z
" id="DejaVuSans-41" transform="scale(0.015625)"/>
       <path d="M 191 3500 
L 800 3500 
L 1894 563 
L 2988 3500 
L 3597 3500 
L 2284 0 
L 1503 0 
L 191 3500 
z
" id="DejaVuSans-76" transform="scale(0.015625)"/>
       <path d="M 2194 1759 
Q 1497 1759 1228 1600 
Q 959 1441 959 1056 
Q 959 750 1161 570 
Q 1363 391 1709 391 
Q 2188 391 2477 730 
Q 2766 1069 2766 1631 
L 2766 1759 
L 2194 1759 
z
M 3341 1997 
L 3341 0 
L 2766 0 
L 2766 531 
Q 2569 213 2275 61 
Q 1981 -91 1556 -91 
Q 1019 -91 701 211 
Q 384 513 384 1019 
Q 384 1609 779 1909 
Q 1175 2209 1959 2209 
L 2766 2209 
L 2766 2266 
Q 2766 2663 2505 2880 
Q 2244 3097 1772 3097 
Q 1472 3097 1187 3025 
Q 903 2953 641 2809 
L 641 3341 
Q 956 3463 1253 3523 
Q 1550 3584 1831 3584 
Q 2591 3584 2966 3190 
Q 3341 2797 3341 1997 
z
" id="DejaVuSans-61" transform="scale(0.015625)"/>
       <path d="M 603 4863 
L 1178 4863 
L 1178 0 
L 603 0 
L 603 4863 
z
" id="DejaVuSans-6c" transform="scale(0.015625)"/>
       <path d="M 3513 2113 
L 3513 0 
L 2938 0 
L 2938 2094 
Q 2938 2591 2744 2837 
Q 2550 3084 2163 3084 
Q 1697 3084 1428 2787 
Q 1159 2491 1159 1978 
L 1159 0 
L 581 0 
L 581 3500 
L 1159 3500 
L 1159 2956 
Q 1366 3272 1645 3428 
Q 1925 3584 2291 3584 
Q 2894 3584 3203 3211 
Q 3513 2838 3513 2113 
z
" id="DejaVuSans-6e" transform="scale(0.015625)"/>
       <path d="M 3122 3366 
L 3122 2828 
Q 2878 2963 2633 3030 
Q 2388 3097 2138 3097 
Q 1578 3097 1268 2742 
Q 959 2388 959 1747 
Q 959 1106 1268 751 
Q 1578 397 2138 397 
Q 2388 397 2633 464 
Q 2878 531 3122 666 
L 3122 134 
Q 2881 22 2623 -34 
Q 2366 -91 2075 -91 
Q 1284 -91 818 406 
Q 353 903 353 1747 
Q 353 2603 823 3093 
Q 1294 3584 2113 3584 
Q 2378 3584 2631 3529 
Q 2884 3475 3122 3366 
z
" id="DejaVuSans-63" transform="scale(0.015625)"/>
       <path d="M 3513 2113 
L 3513 0 
L 2938 0 
L 2938 2094 
Q 2938 2591 2744 2837 
Q 2550 3084 2163 3084 
Q 1697 3084 1428 2787 
Q 1159 2491 1159 1978 
L 1159 0 
L 581 0 
L 581 4863 
L 1159 4863 
L 1159 2956 
Q 1366 3272 1645 3428 
Q 1925 3584 2291 3584 
Q 2894 3584 3203 3211 
Q 3513 2838 3513 2113 
z
" id="DejaVuSans-68" transform="scale(0.015625)"/>
       <path d="M 3597 1894 
L 3597 1613 
L 953 1613 
Q 991 1019 1311 708 
Q 1631 397 2203 397 
Q 2534 397 2845 478 
Q 3156 559 3463 722 
L 3463 178 
Q 3153 47 2828 -22 
Q 2503 -91 2169 -91 
Q 1331 -91 842 396 
Q 353 884 353 1716 
Q 353 2575 817 3079 
Q 1281 3584 2069 3584 
Q 2775 3584 3186 3129 
Q 3597 2675 3597 1894 
z
M 3022 2063 
Q 3016 2534 2758 2815 
Q 2500 3097 2075 3097 
Q 1594 3097 1305 2825 
Q 1016 2553 972 2059 
L 3022 2063 
z
" id="DejaVuSans-65" transform="scale(0.015625)"/>
       <path id="DejaVuSans-20" transform="scale(0.015625)"/>
       <path d="M 2834 3397 
L 2834 2853 
Q 2591 2978 2328 3040 
Q 2066 3103 1784 3103 
Q 1356 3103 1142 2972 
Q 928 2841 928 2578 
Q 928 2378 1081 2264 
Q 1234 2150 1697 2047 
L 1894 2003 
Q 2506 1872 2764 1633 
Q 3022 1394 3022 966 
Q 3022 478 2636 193 
Q 2250 -91 1575 -91 
Q 1294 -91 989 -36 
Q 684 19 347 128 
L 347 722 
Q 666 556 975 473 
Q 1284 391 1588 391 
Q 1994 391 2212 530 
Q 2431 669 2431 922 
Q 2431 1156 2273 1281 
Q 2116 1406 1581 1522 
L 1381 1569 
Q 847 1681 609 1914 
Q 372 2147 372 2553 
Q 372 3047 722 3315 
Q 1072 3584 1716 3584 
Q 2034 3584 2315 3537 
Q 2597 3491 2834 3397 
z
" id="DejaVuSans-73" transform="scale(0.015625)"/>
       <path d="M 603 3500 
L 1178 3500 
L 1178 0 
L 603 0 
L 603 3500 
z
M 603 4863 
L 1178 4863 
L 1178 4134 
L 603 4134 
L 603 4863 
z
" id="DejaVuSans-69" transform="scale(0.015625)"/>
       <path d="M 353 3500 
L 3084 3500 
L 3084 2975 
L 922 459 
L 3084 459 
L 3084 0 
L 275 0 
L 275 525 
L 2438 3041 
L 353 3041 
L 353 3500 
z
" id="DejaVuSans-7a" transform="scale(0.015625)"/>
      </defs>
      <use xlink:href="#DejaVuSans-41"/>
      <use x="62.533203" xlink:href="#DejaVuSans-76"/>
      <use x="121.712891" xlink:href="#DejaVuSans-61"/>
      <use x="182.992188" xlink:href="#DejaVuSans-6c"/>
      <use x="210.775391" xlink:href="#DejaVuSans-61"/>
      <use x="272.054688" xlink:href="#DejaVuSans-6e"/>
      <use x="335.433594" xlink:href="#DejaVuSans-63"/>
      <use x="390.414062" xlink:href="#DejaVuSans-68"/>
      <use x="453.792969" xlink:href="#DejaVuSans-65"/>
      <use x="515.316406" xlink:href="#DejaVuSans-20"/>
      <use x="547.103516" xlink:href="#DejaVuSans-73"/>
      <use x="599.203125" xlink:href="#DejaVuSans-69"/>
      <use x="626.986328" xlink:href="#DejaVuSans-7a"/>
      <use x="679.476562" xlink:href="#DejaVuSans-65"/>
     </g>
    </g>
   </g>
   <g id="matplotlib.axis_2">
    <g id="ytick_1">
     <g id="line2d_19">
      <defs>
       <path d="M 0 0 
L -3.5 0 
" id="m24da9cc0cc" style="stroke:#000000;stroke-width:0.8;"/>
      </defs>
      <g>
       <use style="stroke:#000000;stroke-width:0.8;" x="54" xlink:href="#m24da9cc0cc" y="228.616499"/>
      </g>
     </g>
     <g id="text_4">
      <!-- $\mathdefault{10^{-4}}$ -->
      <g transform="translate(23.5 232.415717)scale(0.1 -0.1)">
       <defs>
        <path d="M 2419 4116 
L 825 1625 
L 2419 1625 
L 2419 4116 
z
M 2253 4666 
L 3047 4666 
L 3047 1625 
L 3713 1625 
L 3713 1100 
L 3047 1100 
L 3047 0 
L 2419 0 
L 2419 1100 
L 313 1100 
L 313 1709 
L 2253 4666 
z
" id="DejaVuSans-34" transform="scale(0.015625)"/>
       </defs>
       <use transform="translate(0 0.684375)" xlink:href="#DejaVuSans-31"/>
       <use transform="translate(63.623047 0.684375)" xlink:href="#DejaVuSans-30"/>
       <use transform="translate(128.203125 38.965625)scale(0.7)" xlink:href="#DejaVuSans-2212"/>
       <use transform="translate(186.855469 38.965625)scale(0.7)" xlink:href="#DejaVuSans-34"/>
      </g>
     </g>
    </g>
    <g id="ytick_2">
     <g id="line2d_20">
      <g>
       <use style="stroke:#000000;stroke-width:0.8;" x="54" xlink:href="#m24da9cc0cc" y="172.764148"/>
      </g>
     </g>
     <g id="text_5">
      <!-- $\mathdefault{10^{-3}}$ -->
      <g transform="translate(23.5 176.563367)scale(0.1 -0.1)">
       <defs>
        <path d="M 2597 2516 
Q 3050 2419 3304 2112 
Q 3559 1806 3559 1356 
Q 3559 666 3084 287 
Q 2609 -91 1734 -91 
Q 1441 -91 1130 -33 
Q 819 25 488 141 
L 488 750 
Q 750 597 1062 519 
Q 1375 441 1716 441 
Q 2309 441 2620 675 
Q 2931 909 2931 1356 
Q 2931 1769 2642 2001 
Q 2353 2234 1838 2234 
L 1294 2234 
L 1294 2753 
L 1863 2753 
Q 2328 2753 2575 2939 
Q 2822 3125 2822 3475 
Q 2822 3834 2567 4026 
Q 2313 4219 1838 4219 
Q 1578 4219 1281 4162 
Q 984 4106 628 3988 
L 628 4550 
Q 988 4650 1302 4700 
Q 1616 4750 1894 4750 
Q 2613 4750 3031 4423 
Q 3450 4097 3450 3541 
Q 3450 3153 3228 2886 
Q 3006 2619 2597 2516 
z
" id="DejaVuSans-33" transform="scale(0.015625)"/>
       </defs>
       <use transform="translate(0 0.765625)" xlink:href="#DejaVuSans-31"/>
       <use transform="translate(63.623047 0.765625)" xlink:href="#DejaVuSans-30"/>
       <use transform="translate(128.203125 39.046875)scale(0.7)" xlink:href="#DejaVuSans-2212"/>
       <use transform="translate(186.855469 39.046875)scale(0.7)" xlink:href="#DejaVuSans-33"/>
      </g>
     </g>
    </g>
    <g id="ytick_3">
     <g id="line2d_21">
      <g>
       <use style="stroke:#000000;stroke-width:0.8;" x="54" xlink:href="#m24da9cc0cc" y="116.911798"/>
      </g>
     </g>
     <g id="text_6">
      <!-- $\mathdefault{10^{-2}}$ -->
      <g transform="translate(23.5 120.711017)scale(0.1 -0.1)">
       <defs>
        <path d="M 1228 531 
L 3431 531 
L 3431 0 
L 469 0 
L 469 531 
Q 828 903 1448 1529 
Q 2069 2156 2228 2338 
Q 2531 2678 2651 2914 
Q 2772 3150 2772 3378 
Q 2772 3750 2511 3984 
Q 2250 4219 1831 4219 
Q 1534 4219 1204 4116 
Q 875 4013 500 3803 
L 500 4441 
Q 881 4594 1212 4672 
Q 1544 4750 1819 4750 
Q 2544 4750 2975 4387 
Q 3406 4025 3406 3419 
Q 3406 3131 3298 2873 
Q 3191 2616 2906 2266 
Q 2828 2175 2409 1742 
Q 1991 1309 1228 531 
z
" id="DejaVuSans-32" transform="scale(0.015625)"/>
       </defs>
       <use transform="translate(0 0.765625)" xlink:href="#DejaVuSans-31"/>
       <use transform="translate(63.623047 0.765625)" xlink:href="#DejaVuSans-30"/>
       <use transform="translate(128.203125 39.046875)scale(0.7)" xlink:href="#DejaVuSans-2212"/>
       <use transform="translate(186.855469 39.046875)scale(0.7)" xlink:href="#DejaVuSans-32"/>
      </g>
     </g>
    </g>
    <g id="ytick_4">
     <g id="line2d_22">
      <g>
       <use style="stroke:#000000;stroke-width:0.8;" x="54" xlink:href="#m24da9cc0cc" y="61.059448"/>
      </g>
     </g>
     <g id="text_7">
      <!-- $\mathdefault{10^{-1}}$ -->
      <g transform="translate(23.5 64.858667)scale(0.1 -0.1)">
       <use transform="translate(0 0.684375)" xlink:href="#DejaVuSans-31"/>
       <use transform="translate(63.623047 0.684375)" xlink:href="#DejaVuSans-30"/>
       <use transform="translate(128.203125 38.965625)scale(0.7)" xlink:href="#DejaVuSans-2212"/>
       <use transform="translate(186.855469 38.965625)scale(0.7)" xlink:href="#DejaVuSans-31"/>
      </g>
     </g>
    </g>
    <g id="ytick_5">
     <g id="line2d_23">
      <defs>
       <path d="M 0 0 
L -2 0 
" id="m67512872e4" style="stroke:#000000;stroke-width:0.6;"/>
      </defs>
      <g>
       <use style="stroke:#000000;stroke-width:0.6;" x="54" xlink:href="#m67512872e4" y="250.842383"/>
      </g>
     </g>
    </g>
    <g id="ytick_6">
     <g id="line2d_24">
      <g>
       <use style="stroke:#000000;stroke-width:0.6;" x="54" xlink:href="#m67512872e4" y="245.429731"/>
      </g>
     </g>
    </g>
    <g id="ytick_7">
     <g id="line2d_25">
      <g>
       <use style="stroke:#000000;stroke-width:0.6;" x="54" xlink:href="#m67512872e4" y="241.007273"/>
      </g>
     </g>
    </g>
    <g id="ytick_8">
     <g id="line2d_26">
      <g>
       <use style="stroke:#000000;stroke-width:0.6;" x="54" xlink:href="#m67512872e4" y="237.268137"/>
      </g>
     </g>
    </g>
    <g id="ytick_9">
     <g id="line2d_27">
      <g>
       <use style="stroke:#000000;stroke-width:0.6;" x="54" xlink:href="#m67512872e4" y="234.029151"/>
      </g>
     </g>
    </g>
    <g id="ytick_10">
     <g id="line2d_28">
      <g>
       <use style="stroke:#000000;stroke-width:0.6;" x="54" xlink:href="#m67512872e4" y="231.172162"/>
      </g>
     </g>
    </g>
    <g id="ytick_11">
     <g id="line2d_29">
      <g>
       <use style="stroke:#000000;stroke-width:0.6;" x="54" xlink:href="#m67512872e4" y="211.803266"/>
      </g>
     </g>
    </g>
    <g id="ytick_12">
     <g id="line2d_30">
      <g>
       <use style="stroke:#000000;stroke-width:0.6;" x="54" xlink:href="#m67512872e4" y="201.968155"/>
      </g>
     </g>
    </g>
    <g id="ytick_13">
     <g id="line2d_31">
      <g>
       <use style="stroke:#000000;stroke-width:0.6;" x="54" xlink:href="#m67512872e4" y="194.990033"/>
      </g>
     </g>
    </g>
    <g id="ytick_14">
     <g id="line2d_32">
      <g>
       <use style="stroke:#000000;stroke-width:0.6;" x="54" xlink:href="#m67512872e4" y="189.577381"/>
      </g>
     </g>
    </g>
    <g id="ytick_15">
     <g id="line2d_33">
      <g>
       <use style="stroke:#000000;stroke-width:0.6;" x="54" xlink:href="#m67512872e4" y="185.154922"/>
      </g>
     </g>
    </g>
    <g id="ytick_16">
     <g id="line2d_34">
      <g>
       <use style="stroke:#000000;stroke-width:0.6;" x="54" xlink:href="#m67512872e4" y="181.415787"/>
      </g>
     </g>
    </g>
    <g id="ytick_17">
     <g id="line2d_35">
      <g>
       <use style="stroke:#000000;stroke-width:0.6;" x="54" xlink:href="#m67512872e4" y="178.1768"/>
      </g>
     </g>
    </g>
    <g id="ytick_18">
     <g id="line2d_36">
      <g>
       <use style="stroke:#000000;stroke-width:0.6;" x="54" xlink:href="#m67512872e4" y="175.319812"/>
      </g>
     </g>
    </g>
    <g id="ytick_19">
     <g id="line2d_37">
      <g>
       <use style="stroke:#000000;stroke-width:0.6;" x="54" xlink:href="#m67512872e4" y="155.950916"/>
      </g>
     </g>
    </g>
    <g id="ytick_20">
     <g id="line2d_38">
      <g>
       <use style="stroke:#000000;stroke-width:0.6;" x="54" xlink:href="#m67512872e4" y="146.115805"/>
      </g>
     </g>
    </g>
    <g id="ytick_21">
     <g id="line2d_39">
      <g>
       <use style="stroke:#000000;stroke-width:0.6;" x="54" xlink:href="#m67512872e4" y="139.137683"/>
      </g>
     </g>
    </g>
    <g id="ytick_22">
     <g id="line2d_40">
      <g>
       <use style="stroke:#000000;stroke-width:0.6;" x="54" xlink:href="#m67512872e4" y="133.725031"/>
      </g>
     </g>
    </g>
    <g id="ytick_23">
     <g id="line2d_41">
      <g>
       <use style="stroke:#000000;stroke-width:0.6;" x="54" xlink:href="#m67512872e4" y="129.302572"/>
      </g>
     </g>
    </g>
    <g id="ytick_24">
     <g id="line2d_42">
      <g>
       <use style="stroke:#000000;stroke-width:0.6;" x="54" xlink:href="#m67512872e4" y="125.563437"/>
      </g>
     </g>
    </g>
    <g id="ytick_25">
     <g id="line2d_43">
      <g>
       <use style="stroke:#000000;stroke-width:0.6;" x="54" xlink:href="#m67512872e4" y="122.32445"/>
      </g>
     </g>
    </g>
    <g id="ytick_26">
     <g id="line2d_44">
      <g>
       <use style="stroke:#000000;stroke-width:0.6;" x="54" xlink:href="#m67512872e4" y="119.467461"/>
      </g>
     </g>
    </g>
    <g id="ytick_27">
     <g id="line2d_45">
      <g>
       <use style="stroke:#000000;stroke-width:0.6;" x="54" xlink:href="#m67512872e4" y="100.098565"/>
      </g>
     </g>
    </g>
    <g id="ytick_28">
     <g id="line2d_46">
      <g>
       <use style="stroke:#000000;stroke-width:0.6;" x="54" xlink:href="#m67512872e4" y="90.263455"/>
      </g>
     </g>
    </g>
    <g id="ytick_29">
     <g id="line2d_47">
      <g>
       <use style="stroke:#000000;stroke-width:0.6;" x="54" xlink:href="#m67512872e4" y="83.285333"/>
      </g>
     </g>
    </g>
    <g id="ytick_30">
     <g id="line2d_48">
      <g>
       <use style="stroke:#000000;stroke-width:0.6;" x="54" xlink:href="#m67512872e4" y="77.872681"/>
      </g>
     </g>
    </g>
    <g id="ytick_31">
     <g id="line2d_49">
      <g>
       <use style="stroke:#000000;stroke-width:0.6;" x="54" xlink:href="#m67512872e4" y="73.450222"/>
      </g>
     </g>
    </g>
    <g id="ytick_32">
     <g id="line2d_50">
      <g>
       <use style="stroke:#000000;stroke-width:0.6;" x="54" xlink:href="#m67512872e4" y="69.711086"/>
      </g>
     </g>
    </g>
    <g id="ytick_33">
     <g id="line2d_51">
      <g>
       <use style="stroke:#000000;stroke-width:0.6;" x="54" xlink:href="#m67512872e4" y="66.4721"/>
      </g>
     </g>
    </g>
    <g id="ytick_34">
     <g id="line2d_52">
      <g>
       <use style="stroke:#000000;stroke-width:0.6;" x="54" xlink:href="#m67512872e4" y="63.615111"/>
      </g>
     </g>
    </g>
    <g id="ytick_35">
     <g id="line2d_53">
      <g>
       <use style="stroke:#000000;stroke-width:0.6;" x="54" xlink:href="#m67512872e4" y="44.246215"/>
      </g>
     </g>
    </g>
    <g id="text_8">
     <!-- PDF -->
     <g transform="translate(17.420313 153.020625)rotate(-90)scale(0.1 -0.1)">
      <defs>
       <path d="M 1259 4147 
L 1259 2394 
L 2053 2394 
Q 2494 2394 2734 2622 
Q 2975 2850 2975 3272 
Q 2975 3691 2734 3919 
Q 2494 4147 2053 4147 
L 1259 4147 
z
M 628 4666 
L 2053 4666 
Q 2838 4666 3239 4311 
Q 3641 3956 3641 3272 
Q 3641 2581 3239 2228 
Q 2838 1875 2053 1875 
L 1259 1875 
L 1259 0 
L 628 0 
L 628 4666 
z
" id="DejaVuSans-50" transform="scale(0.015625)"/>
       <path d="M 1259 4147 
L 1259 519 
L 2022 519 
Q 2988 519 3436 956 
Q 3884 1394 3884 2338 
Q 3884 3275 3436 3711 
Q 2988 4147 2022 4147 
L 1259 4147 
z
M 628 4666 
L 1925 4666 
Q 3281 4666 3915 4102 
Q 4550 3538 4550 2338 
Q 4550 1131 3912 565 
Q 3275 0 1925 0 
L 628 0 
L 628 4666 
z
" id="DejaVuSans-44" transform="scale(0.015625)"/>
       <path d="M 628 4666 
L 3309 4666 
L 3309 4134 
L 1259 4134 
L 1259 2759 
L 3109 2759 
L 3109 2228 
L 1259 2228 
L 1259 0 
L 628 0 
L 628 4666 
z
" id="DejaVuSans-46" transform="scale(0.015625)"/>
      </defs>
      <use xlink:href="#DejaVuSans-50"/>
      <use x="60.302734" xlink:href="#DejaVuSans-44"/>
      <use x="137.304688" xlink:href="#DejaVuSans-46"/>
     </g>
    </g>
   </g>
   <g id="line2d_54">
    <defs>
     <path d="M -1.14805 -2.771639 
L -2.771639 -1.14805 
L -2.771639 1.14805 
L -1.14805 2.771639 
L 1.14805 2.771639 
L 2.771639 1.14805 
L 2.771639 -1.14805 
L 1.14805 -2.771639 
z
" id="ma534fc54aa" style="stroke:#ff6347;stroke-linejoin:miter;"/>
    </defs>
    <g clip-path="url(#p8ba4169048)">
     <use style="fill:#ff6347;stroke:#ff6347;stroke-linejoin:miter;" x="69.218182" xlink:href="#ma534fc54aa" y="44.443636"/>
     <use style="fill:#ff6347;stroke:#ff6347;stroke-linejoin:miter;" x="70.877623" xlink:href="#ma534fc54aa" y="20737"/>
     <use style="fill:#ff6347;stroke:#ff6347;stroke-linejoin:miter;" x="116.794503" xlink:href="#ma534fc54aa" y="20737"/>
     <use style="fill:#ff6347;stroke:#ff6347;stroke-linejoin:miter;" x="118.453476" xlink:href="#ma534fc54aa" y="53.711687"/>
     <use style="fill:#ff6347;stroke:#ff6347;stroke-linejoin:miter;" x="120.112449" xlink:href="#ma534fc54aa" y="20737"/>
     <use style="fill:#ff6347;stroke:#ff6347;stroke-linejoin:miter;" x="143.650464" xlink:href="#ma534fc54aa" y="20737"/>
     <use style="fill:#ff6347;stroke:#ff6347;stroke-linejoin:miter;" x="145.309091" xlink:href="#ma534fc54aa" y="60.560382"/>
     <use style="fill:#ff6347;stroke:#ff6347;stroke-linejoin:miter;" x="146.967718" xlink:href="#ma534fc54aa" y="20737"/>
     <use style="fill:#ff6347;stroke:#ff6347;stroke-linejoin:miter;" x="166.030388" xlink:href="#ma534fc54aa" y="20737"/>
     <use style="fill:#ff6347;stroke:#ff6347;stroke-linejoin:miter;" x="167.68877" xlink:href="#ma534fc54aa" y="65.42139"/>
     <use style="fill:#ff6347;stroke:#ff6347;stroke-linejoin:miter;" x="169.347152" xlink:href="#ma534fc54aa" y="20737"/>
     <use style="fill:#ff6347;stroke:#ff6347;stroke-linejoin:miter;" x="179.4584" xlink:href="#ma534fc54aa" y="20737"/>
     <use style="fill:#ff6347;stroke:#ff6347;stroke-linejoin:miter;" x="181.116578" xlink:href="#ma534fc54aa" y="69.470765"/>
     <use style="fill:#ff6347;stroke:#ff6347;stroke-linejoin:miter;" x="182.774755" xlink:href="#ma534fc54aa" y="20737"/>
     <use style="fill:#ff6347;stroke:#ff6347;stroke-linejoin:miter;" x="192.886381" xlink:href="#ma534fc54aa" y="20737"/>
     <use style="fill:#ff6347;stroke:#ff6347;stroke-linejoin:miter;" x="194.544385" xlink:href="#ma534fc54aa" y="72.907858"/>
     <use style="fill:#ff6347;stroke:#ff6347;stroke-linejoin:miter;" x="196.202389" xlink:href="#ma534fc54aa" y="20737"/>
     <use style="fill:#ff6347;stroke:#ff6347;stroke-linejoin:miter;" x="206.314338" xlink:href="#ma534fc54aa" y="20737"/>
     <use style="fill:#ff6347;stroke:#ff6347;stroke-linejoin:miter;" x="207.972193" xlink:href="#ma534fc54aa" y="75.863928"/>
     <use style="fill:#ff6347;stroke:#ff6347;stroke-linejoin:miter;" x="209.630047" xlink:href="#ma534fc54aa" y="20737"/>
     <use style="fill:#ff6347;stroke:#ff6347;stroke-linejoin:miter;" x="215.266343" xlink:href="#ma534fc54aa" y="20737"/>
     <use style="fill:#ff6347;stroke:#ff6347;stroke-linejoin:miter;" x="216.924064" xlink:href="#ma534fc54aa" y="78.496244"/>
     <use style="fill:#ff6347;stroke:#ff6347;stroke-linejoin:miter;" x="218.581785" xlink:href="#ma534fc54aa" y="20737"/>
     <use style="fill:#ff6347;stroke:#ff6347;stroke-linejoin:miter;" x="224.218339" xlink:href="#ma534fc54aa" y="20737"/>
     <use style="fill:#ff6347;stroke:#ff6347;stroke-linejoin:miter;" x="225.875936" xlink:href="#ma534fc54aa" y="80.96503"/>
     <use style="fill:#ff6347;stroke:#ff6347;stroke-linejoin:miter;" x="230.351872" xlink:href="#ma534fc54aa" y="83.207801"/>
     <use style="fill:#ff6347;stroke:#ff6347;stroke-linejoin:miter;" x="232.009355" xlink:href="#ma534fc54aa" y="20737"/>
     <use style="fill:#ff6347;stroke:#ff6347;stroke-linejoin:miter;" x="237.646368" xlink:href="#ma534fc54aa" y="20737"/>
     <use style="fill:#ff6347;stroke:#ff6347;stroke-linejoin:miter;" x="239.303743" xlink:href="#ma534fc54aa" y="85.343306"/>
     <use style="fill:#ff6347;stroke:#ff6347;stroke-linejoin:miter;" x="243.779679" xlink:href="#ma534fc54aa" y="87.32042"/>
     <use style="fill:#ff6347;stroke:#ff6347;stroke-linejoin:miter;" x="248.255615" xlink:href="#ma534fc54aa" y="89.177217"/>
     <use style="fill:#ff6347;stroke:#ff6347;stroke-linejoin:miter;" x="249.912797" xlink:href="#ma534fc54aa" y="20737"/>
     <use style="fill:#ff6347;stroke:#ff6347;stroke-linejoin:miter;" x="255.550396" xlink:href="#ma534fc54aa" y="20737"/>
     <use style="fill:#ff6347;stroke:#ff6347;stroke-linejoin:miter;" x="257.207487" xlink:href="#ma534fc54aa" y="90.976666"/>
     <use style="fill:#ff6347;stroke:#ff6347;stroke-linejoin:miter;" x="261.683422" xlink:href="#ma534fc54aa" y="92.796128"/>
     <use style="fill:#ff6347;stroke:#ff6347;stroke-linejoin:miter;" x="266.159358" xlink:href="#ma534fc54aa" y="94.543584"/>
     <use style="fill:#ff6347;stroke:#ff6347;stroke-linejoin:miter;" x="270.635294" xlink:href="#ma534fc54aa" y="96.127155"/>
     <use style="fill:#ff6347;stroke:#ff6347;stroke-linejoin:miter;" x="275.11123" xlink:href="#ma534fc54aa" y="81.717451"/>
     <use style="fill:#ff6347;stroke:#ff6347;stroke-linejoin:miter;" x="279.587166" xlink:href="#ma534fc54aa" y="100.916134"/>
     <use style="fill:#ff6347;stroke:#ff6347;stroke-linejoin:miter;" x="284.063102" xlink:href="#ma534fc54aa" y="102.461132"/>
     <use style="fill:#ff6347;stroke:#ff6347;stroke-linejoin:miter;" x="288.539037" xlink:href="#ma534fc54aa" y="87.932625"/>
     <use style="fill:#ff6347;stroke:#ff6347;stroke-linejoin:miter;" x="293.014973" xlink:href="#ma534fc54aa" y="106.931007"/>
     <use style="fill:#ff6347;stroke:#ff6347;stroke-linejoin:miter;" x="297.490909" xlink:href="#ma534fc54aa" y="92.40182"/>
     <use style="fill:#ff6347;stroke:#ff6347;stroke-linejoin:miter;" x="301.966845" xlink:href="#ma534fc54aa" y="111.457549"/>
     <use style="fill:#ff6347;stroke:#ff6347;stroke-linejoin:miter;" x="306.442781" xlink:href="#ma534fc54aa" y="96.953924"/>
     <use style="fill:#ff6347;stroke:#ff6347;stroke-linejoin:miter;" x="310.918717" xlink:href="#ma534fc54aa" y="100.03994"/>
     <use style="fill:#ff6347;stroke:#ff6347;stroke-linejoin:miter;" x="315.394652" xlink:href="#ma534fc54aa" y="103.150029"/>
     <use style="fill:#ff6347;stroke:#ff6347;stroke-linejoin:miter;" x="319.870588" xlink:href="#ma534fc54aa" y="106.380314"/>
     <use style="fill:#ff6347;stroke:#ff6347;stroke-linejoin:miter;" x="324.346524" xlink:href="#ma534fc54aa" y="100.462851"/>
     <use style="fill:#ff6347;stroke:#ff6347;stroke-linejoin:miter;" x="328.82246" xlink:href="#ma534fc54aa" y="114.531266"/>
     <use style="fill:#ff6347;stroke:#ff6347;stroke-linejoin:miter;" x="333.298396" xlink:href="#ma534fc54aa" y="109.406767"/>
     <use style="fill:#ff6347;stroke:#ff6347;stroke-linejoin:miter;" x="337.774332" xlink:href="#ma534fc54aa" y="123.937653"/>
     <use style="fill:#ff6347;stroke:#ff6347;stroke-linejoin:miter;" x="342.250267" xlink:href="#ma534fc54aa" y="119.358104"/>
     <use style="fill:#ff6347;stroke:#ff6347;stroke-linejoin:miter;" x="346.726203" xlink:href="#ma534fc54aa" y="120.605972"/>
     <use style="fill:#ff6347;stroke:#ff6347;stroke-linejoin:miter;" x="351.202139" xlink:href="#ma534fc54aa" y="137.316392"/>
     <use style="fill:#ff6347;stroke:#ff6347;stroke-linejoin:miter;" x="355.678075" xlink:href="#ma534fc54aa" y="141.031113"/>
     <use style="fill:#ff6347;stroke:#ff6347;stroke-linejoin:miter;" x="360.154011" xlink:href="#ma534fc54aa" y="162.583166"/>
     <use style="fill:#ff6347;stroke:#ff6347;stroke-linejoin:miter;" x="364.629947" xlink:href="#ma534fc54aa" y="171.823376"/>
     <use style="fill:#ff6347;stroke:#ff6347;stroke-linejoin:miter;" x="369.105882" xlink:href="#ma534fc54aa" y="206.127955"/>
     <use style="fill:#ff6347;stroke:#ff6347;stroke-linejoin:miter;" x="373.581818" xlink:href="#ma534fc54aa" y="242.116364"/>
    </g>
   </g>
   <g id="patch_3">
    <path d="M 54 252 
L 54 34.56 
" style="fill:none;stroke:#000000;stroke-linecap:square;stroke-linejoin:miter;stroke-width:0.8;"/>
   </g>
   <g id="patch_4">
    <path d="M 388.8 252 
L 388.8 34.56 
" style="fill:none;stroke:#000000;stroke-linecap:square;stroke-linejoin:miter;stroke-width:0.8;"/>
   </g>
   <g id="patch_5">
    <path d="M 54 252 
L 388.8 252 
" style="fill:none;stroke:#000000;stroke-linecap:square;stroke-linejoin:miter;stroke-width:0.8;"/>
   </g>
   <g id="patch_6">
    <path d="M 54 34.56 
L 388.8 34.56 
" style="fill:none;stroke:#000000;stroke-linecap:square;stroke-linejoin:miter;stroke-width:0.8;"/>
   </g>
  </g>
 </g>
 <defs>
  <clipPath id="p8ba4169048">
   <rect height="217.44" width="334.8" x="54" y="34.56"/>
  </clipPath>
 </defs>
</svg>
