<?xml version="1.0" encoding="utf-8" standalone="no"?>
<!DOCTYPE svg PUBLIC "-//W3C//DTD SVG 1.1//EN"
  "http://www.w3.org/Graphics/SVG/1.1/DTD/svg11.dtd">
<svg height="288pt" version="1.1" viewBox="0 0 432 288" width="432pt" xmlns="http://www.w3.org/2000/svg" xmlns:xlink="http://www.w3.org/1999/xlink">
 <metadata>
  <rdf:RDF xmlns:cc="http://creativecommons.org/ns#" xmlns:dc="http://purl.org/dc/elements/1.1/" xmlns:rdf="http://www.w3.org/1999/02/22-rdf-syntax-ns#">
   <cc:Work>
    <dc:type rdf:resource="http://purl.org/dc/dcmitype/StillImage"/>
    <dc:date>2021-08-23T13:31:42.612157</dc:date>
    <dc:format>image/svg+xml</dc:format>
    <dc:creator>
     <cc:Agent>
      <dc:title>Matplotlib v3.4.2, https://matplotlib.org/</dc:title>
     </cc:Agent>
    </dc:creator>
   </cc:Work>
  </rdf:RDF>
 </metadata>
 <defs>
  <style type="text/css">*{stroke-linecap:butt;stroke-linejoin:round;}</style>
 </defs>
 <g id="figure_1">
  <g id="patch_1">
   <path d="M 0 288 
L 432 288 
L 432 0 
L 0 0 
z
" style="fill:none;"/>
  </g>
  <g id="axes_1">
   <g id="patch_2">
    <path d="M 54 252 
L 388.8 252 
L 388.8 34.56 
L 54 34.56 
z
" style="fill:#ffffff;"/>
   </g>
   <g id="matplotlib.axis_1">
    <g id="xtick_1">
     <g id="line2d_1">
      <defs>
       <path d="M 0 0 
L 0 3.5 
" id="m73911fcecb" style="stroke:#000000;stroke-width:0.8;"/>
      </defs>
      <g>
       <use style="stroke:#000000;stroke-width:0.8;" x="69.218182" xlink:href="#m73911fcecb" y="252"/>
      </g>
     </g>
     <g id="text_1">
      <!-- 0.0 -->
      <g transform="translate(61.266619 266.598437)scale(0.1 -0.1)">
       <defs>
        <path d="M 2034 4250 
Q 1547 4250 1301 3770 
Q 1056 3291 1056 2328 
Q 1056 1369 1301 889 
Q 1547 409 2034 409 
Q 2525 409 2770 889 
Q 3016 1369 3016 2328 
Q 3016 3291 2770 3770 
Q 2525 4250 2034 4250 
z
M 2034 4750 
Q 2819 4750 3233 4129 
Q 3647 3509 3647 2328 
Q 3647 1150 3233 529 
Q 2819 -91 2034 -91 
Q 1250 -91 836 529 
Q 422 1150 422 2328 
Q 422 3509 836 4129 
Q 1250 4750 2034 4750 
z
" id="DejaVuSans-30" transform="scale(0.015625)"/>
        <path d="M 684 794 
L 1344 794 
L 1344 0 
L 684 0 
L 684 794 
z
" id="DejaVuSans-2e" transform="scale(0.015625)"/>
       </defs>
       <use xlink:href="#DejaVuSans-30"/>
       <use x="63.623047" xlink:href="#DejaVuSans-2e"/>
       <use x="95.410156" xlink:href="#DejaVuSans-30"/>
      </g>
     </g>
    </g>
    <g id="xtick_2">
     <g id="line2d_2">
      <g>
       <use style="stroke:#000000;stroke-width:0.8;" x="109.266029" xlink:href="#m73911fcecb" y="252"/>
      </g>
     </g>
     <g id="text_2">
      <!-- 2.5 -->
      <g transform="translate(101.314466 266.598437)scale(0.1 -0.1)">
       <defs>
        <path d="M 1228 531 
L 3431 531 
L 3431 0 
L 469 0 
L 469 531 
Q 828 903 1448 1529 
Q 2069 2156 2228 2338 
Q 2531 2678 2651 2914 
Q 2772 3150 2772 3378 
Q 2772 3750 2511 3984 
Q 2250 4219 1831 4219 
Q 1534 4219 1204 4116 
Q 875 4013 500 3803 
L 500 4441 
Q 881 4594 1212 4672 
Q 1544 4750 1819 4750 
Q 2544 4750 2975 4387 
Q 3406 4025 3406 3419 
Q 3406 3131 3298 2873 
Q 3191 2616 2906 2266 
Q 2828 2175 2409 1742 
Q 1991 1309 1228 531 
z
" id="DejaVuSans-32" transform="scale(0.015625)"/>
        <path d="M 691 4666 
L 3169 4666 
L 3169 4134 
L 1269 4134 
L 1269 2991 
Q 1406 3038 1543 3061 
Q 1681 3084 1819 3084 
Q 2600 3084 3056 2656 
Q 3513 2228 3513 1497 
Q 3513 744 3044 326 
Q 2575 -91 1722 -91 
Q 1428 -91 1123 -41 
Q 819 9 494 109 
L 494 744 
Q 775 591 1075 516 
Q 1375 441 1709 441 
Q 2250 441 2565 725 
Q 2881 1009 2881 1497 
Q 2881 1984 2565 2268 
Q 2250 2553 1709 2553 
Q 1456 2553 1204 2497 
Q 953 2441 691 2322 
L 691 4666 
z
" id="DejaVuSans-35" transform="scale(0.015625)"/>
       </defs>
       <use xlink:href="#DejaVuSans-32"/>
       <use x="63.623047" xlink:href="#DejaVuSans-2e"/>
       <use x="95.410156" xlink:href="#DejaVuSans-35"/>
      </g>
     </g>
    </g>
    <g id="xtick_3">
     <g id="line2d_3">
      <g>
       <use style="stroke:#000000;stroke-width:0.8;" x="149.313876" xlink:href="#m73911fcecb" y="252"/>
      </g>
     </g>
     <g id="text_3">
      <!-- 5.0 -->
      <g transform="translate(141.362313 266.598437)scale(0.1 -0.1)">
       <use xlink:href="#DejaVuSans-35"/>
       <use x="63.623047" xlink:href="#DejaVuSans-2e"/>
       <use x="95.410156" xlink:href="#DejaVuSans-30"/>
      </g>
     </g>
    </g>
    <g id="xtick_4">
     <g id="line2d_4">
      <g>
       <use style="stroke:#000000;stroke-width:0.8;" x="189.361722" xlink:href="#m73911fcecb" y="252"/>
      </g>
     </g>
     <g id="text_4">
      <!-- 7.5 -->
      <g transform="translate(181.41016 266.598437)scale(0.1 -0.1)">
       <defs>
        <path d="M 525 4666 
L 3525 4666 
L 3525 4397 
L 1831 0 
L 1172 0 
L 2766 4134 
L 525 4134 
L 525 4666 
z
" id="DejaVuSans-37" transform="scale(0.015625)"/>
       </defs>
       <use xlink:href="#DejaVuSans-37"/>
       <use x="63.623047" xlink:href="#DejaVuSans-2e"/>
       <use x="95.410156" xlink:href="#DejaVuSans-35"/>
      </g>
     </g>
    </g>
    <g id="xtick_5">
     <g id="line2d_5">
      <g>
       <use style="stroke:#000000;stroke-width:0.8;" x="229.409569" xlink:href="#m73911fcecb" y="252"/>
      </g>
     </g>
     <g id="text_5">
      <!-- 10.0 -->
      <g transform="translate(218.276757 266.598437)scale(0.1 -0.1)">
       <defs>
        <path d="M 794 531 
L 1825 531 
L 1825 4091 
L 703 3866 
L 703 4441 
L 1819 4666 
L 2450 4666 
L 2450 531 
L 3481 531 
L 3481 0 
L 794 0 
L 794 531 
z
" id="DejaVuSans-31" transform="scale(0.015625)"/>
       </defs>
       <use xlink:href="#DejaVuSans-31"/>
       <use x="63.623047" xlink:href="#DejaVuSans-30"/>
       <use x="127.246094" xlink:href="#DejaVuSans-2e"/>
       <use x="159.033203" xlink:href="#DejaVuSans-30"/>
      </g>
     </g>
    </g>
    <g id="xtick_6">
     <g id="line2d_6">
      <g>
       <use style="stroke:#000000;stroke-width:0.8;" x="269.457416" xlink:href="#m73911fcecb" y="252"/>
      </g>
     </g>
     <g id="text_6">
      <!-- 12.5 -->
      <g transform="translate(258.324604 266.598437)scale(0.1 -0.1)">
       <use xlink:href="#DejaVuSans-31"/>
       <use x="63.623047" xlink:href="#DejaVuSans-32"/>
       <use x="127.246094" xlink:href="#DejaVuSans-2e"/>
       <use x="159.033203" xlink:href="#DejaVuSans-35"/>
      </g>
     </g>
    </g>
    <g id="xtick_7">
     <g id="line2d_7">
      <g>
       <use style="stroke:#000000;stroke-width:0.8;" x="309.505263" xlink:href="#m73911fcecb" y="252"/>
      </g>
     </g>
     <g id="text_7">
      <!-- 15.0 -->
      <g transform="translate(298.372451 266.598437)scale(0.1 -0.1)">
       <use xlink:href="#DejaVuSans-31"/>
       <use x="63.623047" xlink:href="#DejaVuSans-35"/>
       <use x="127.246094" xlink:href="#DejaVuSans-2e"/>
       <use x="159.033203" xlink:href="#DejaVuSans-30"/>
      </g>
     </g>
    </g>
    <g id="xtick_8">
     <g id="line2d_8">
      <g>
       <use style="stroke:#000000;stroke-width:0.8;" x="349.55311" xlink:href="#m73911fcecb" y="252"/>
      </g>
     </g>
     <g id="text_8">
      <!-- 17.5 -->
      <g transform="translate(338.420298 266.598437)scale(0.1 -0.1)">
       <use xlink:href="#DejaVuSans-31"/>
       <use x="63.623047" xlink:href="#DejaVuSans-37"/>
       <use x="127.246094" xlink:href="#DejaVuSans-2e"/>
       <use x="159.033203" xlink:href="#DejaVuSans-35"/>
      </g>
     </g>
    </g>
   </g>
   <g id="matplotlib.axis_2">
    <g id="ytick_1">
     <g id="line2d_9">
      <defs>
       <path d="M 0 0 
L -3.5 0 
" id="md2412979b9" style="stroke:#000000;stroke-width:0.8;"/>
      </defs>
      <g>
       <use style="stroke:#000000;stroke-width:0.8;" x="54" xlink:href="#md2412979b9" y="241.928221"/>
      </g>
     </g>
     <g id="text_9">
      <!-- −0.05 -->
      <g transform="translate(16.354687 245.727439)scale(0.1 -0.1)">
       <defs>
        <path d="M 678 2272 
L 4684 2272 
L 4684 1741 
L 678 1741 
L 678 2272 
z
" id="DejaVuSans-2212" transform="scale(0.015625)"/>
       </defs>
       <use xlink:href="#DejaVuSans-2212"/>
       <use x="83.789062" xlink:href="#DejaVuSans-30"/>
       <use x="147.412109" xlink:href="#DejaVuSans-2e"/>
       <use x="179.199219" xlink:href="#DejaVuSans-30"/>
       <use x="242.822266" xlink:href="#DejaVuSans-35"/>
      </g>
     </g>
    </g>
    <g id="ytick_2">
     <g id="line2d_10">
      <g>
       <use style="stroke:#000000;stroke-width:0.8;" x="54" xlink:href="#md2412979b9" y="194.589969"/>
      </g>
     </g>
     <g id="text_10">
      <!-- 0.00 -->
      <g transform="translate(24.734375 198.389187)scale(0.1 -0.1)">
       <use xlink:href="#DejaVuSans-30"/>
       <use x="63.623047" xlink:href="#DejaVuSans-2e"/>
       <use x="95.410156" xlink:href="#DejaVuSans-30"/>
       <use x="159.033203" xlink:href="#DejaVuSans-30"/>
      </g>
     </g>
    </g>
    <g id="ytick_3">
     <g id="line2d_11">
      <g>
       <use style="stroke:#000000;stroke-width:0.8;" x="54" xlink:href="#md2412979b9" y="147.251716"/>
      </g>
     </g>
     <g id="text_11">
      <!-- 0.05 -->
      <g transform="translate(24.734375 151.050935)scale(0.1 -0.1)">
       <use xlink:href="#DejaVuSans-30"/>
       <use x="63.623047" xlink:href="#DejaVuSans-2e"/>
       <use x="95.410156" xlink:href="#DejaVuSans-30"/>
       <use x="159.033203" xlink:href="#DejaVuSans-35"/>
      </g>
     </g>
    </g>
    <g id="ytick_4">
     <g id="line2d_12">
      <g>
       <use style="stroke:#000000;stroke-width:0.8;" x="54" xlink:href="#md2412979b9" y="99.913464"/>
      </g>
     </g>
     <g id="text_12">
      <!-- 0.10 -->
      <g transform="translate(24.734375 103.712683)scale(0.1 -0.1)">
       <use xlink:href="#DejaVuSans-30"/>
       <use x="63.623047" xlink:href="#DejaVuSans-2e"/>
       <use x="95.410156" xlink:href="#DejaVuSans-31"/>
       <use x="159.033203" xlink:href="#DejaVuSans-30"/>
      </g>
     </g>
    </g>
    <g id="ytick_5">
     <g id="line2d_13">
      <g>
       <use style="stroke:#000000;stroke-width:0.8;" x="54" xlink:href="#md2412979b9" y="52.575212"/>
      </g>
     </g>
     <g id="text_13">
      <!-- 0.15 -->
      <g transform="translate(24.734375 56.374431)scale(0.1 -0.1)">
       <use xlink:href="#DejaVuSans-30"/>
       <use x="63.623047" xlink:href="#DejaVuSans-2e"/>
       <use x="95.410156" xlink:href="#DejaVuSans-31"/>
       <use x="159.033203" xlink:href="#DejaVuSans-35"/>
      </g>
     </g>
    </g>
   </g>
   <g id="line2d_14">
    <path clip-path="url(#p091948d80b)" d="M 69.218182 133.284432 
L 85.237321 167.651109 
L 101.256459 201.470636 
L 117.275598 217.809024 
L 133.294737 209.957859 
L 149.313876 193.172362 
L 165.333014 190.31631 
L 181.352153 193.837038 
L 197.371292 210.000779 
L 213.390431 223.85687 
L 229.409569 218.165478 
L 245.428708 204.311773 
L 261.447847 199.937297 
L 277.466986 192.957668 
L 293.486124 182.511771 
L 309.505263 147.55044 
L 325.524402 143.449508 
L 341.543541 187.803557 
L 357.562679 195.074712 
L 373.581818 194.589969 
" style="fill:none;stroke:#1f77b4;stroke-linecap:square;stroke-width:1.5;"/>
   </g>
   <g id="line2d_15">
    <path clip-path="url(#p091948d80b)" d="M 69.218182 143.233797 
L 85.237321 172.332042 
L 101.256459 194.273539 
L 117.275598 208.977128 
L 133.294737 201.962428 
L 149.313876 179.501513 
L 165.333014 188.055821 
L 181.352153 192.86038 
L 197.371292 220.00535 
L 213.390431 214.268159 
L 229.409569 177.153738 
L 245.428708 174.503027 
L 261.447847 174.17014 
L 277.466986 211.570837 
L 293.486124 213.185276 
L 309.505263 204.430266 
L 325.524402 199.422257 
L 341.543541 175.604174 
L 357.562679 200.95223 
L 373.581818 194.589969 
" style="fill:none;stroke:#ff7f0e;stroke-linecap:square;stroke-width:1.5;"/>
   </g>
   <g id="line2d_16">
    <path clip-path="url(#p091948d80b)" d="M 69.218182 123.296894 
L 85.237321 156.324086 
L 101.256459 203.197161 
L 117.275598 216.716254 
L 133.294737 200.885009 
L 149.313876 189.736068 
L 165.333014 209.936064 
L 181.352153 242.116364 
L 197.371292 229.567256 
L 213.390431 174.63936 
L 229.409569 141.641414 
L 245.428708 160.897289 
L 261.447847 184.667871 
L 277.466986 189.356715 
L 293.486124 190.90053 
L 309.505263 186.242682 
L 325.524402 214.282681 
L 341.543541 229.141422 
L 357.562679 199.31622 
L 373.581818 194.589969 
" style="fill:none;stroke:#2ca02c;stroke-linecap:square;stroke-width:1.5;"/>
   </g>
   <g id="line2d_17">
    <path clip-path="url(#p091948d80b)" d="M 69.218182 158.033628 
L 85.237321 172.33607 
L 101.256459 186.964232 
L 117.275598 198.850346 
L 133.294737 216.264261 
L 149.313876 227.096881 
L 165.333014 219.912881 
L 181.352153 206.483399 
L 197.371292 191.728634 
L 213.390431 178.539343 
L 229.409569 166.852934 
L 245.428708 171.199589 
L 261.447847 192.079148 
L 277.466986 193.605642 
L 293.486124 208.364769 
L 309.505263 217.082076 
L 325.524402 202.891204 
L 341.543541 192.247041 
L 357.562679 199.679777 
L 373.581818 194.589969 
" style="fill:none;stroke:#d62728;stroke-linecap:square;stroke-width:1.5;"/>
   </g>
   <g id="line2d_18">
    <path clip-path="url(#p091948d80b)" d="M 69.218182 118.827557 
L 85.237321 135.280704 
L 101.256459 146.446989 
L 117.275598 167.940806 
L 133.294737 190.092835 
L 149.313876 202.932946 
L 165.333014 220.385258 
L 181.352153 234.118093 
L 197.371292 241.226352 
L 213.390431 235.062062 
L 229.409569 237.092296 
L 245.428708 217.423791 
L 261.447847 209.579153 
L 277.466986 194.703735 
L 293.486124 180.673785 
L 309.505263 192.069301 
L 325.524402 199.073848 
L 341.543541 200.08373 
L 357.562679 196.528943 
L 373.581818 194.589969 
" style="fill:none;stroke:#9467bd;stroke-linecap:square;stroke-width:1.5;"/>
   </g>
   <g id="line2d_19">
    <path clip-path="url(#p091948d80b)" d="M 69.218182 159.836269 
L 85.237321 169.593441 
L 101.256459 182.335229 
L 117.275598 185.425126 
L 133.294737 191.245994 
L 149.313876 194.993922 
L 165.333014 187.494409 
L 181.352153 181.411537 
L 197.371292 184.846283 
L 213.390431 189.654396 
L 229.409569 193.477482 
L 245.428708 198.907778 
L 261.447847 201.009036 
L 277.466986 199.185141 
L 293.486124 196.932896 
L 309.505263 198.632731 
L 325.524402 202.164089 
L 341.543541 198.360197 
L 357.562679 190.348461 
L 373.581818 194.589969 
" style="fill:none;stroke:#8c564b;stroke-linecap:square;stroke-width:1.5;"/>
   </g>
   <g id="line2d_20">
    <path clip-path="url(#p091948d80b)" d="M 69.218182 134.412068 
L 85.237321 160.94795 
L 101.256459 180.252626 
L 117.275598 189.257788 
L 133.294737 193.741667 
L 149.313876 197.606152 
L 165.333014 215.325128 
L 181.352153 226.017997 
L 197.371292 216.635708 
L 213.390431 197.256059 
L 229.409569 181.128636 
L 245.428708 173.02785 
L 261.447847 175.056312 
L 277.466986 179.577753 
L 293.486124 176.270696 
L 309.505263 176.605977 
L 325.524402 169.731706 
L 341.543541 171.26841 
L 357.562679 193.014551 
L 373.581818 194.589969 
" style="fill:none;stroke:#e377c2;stroke-linecap:square;stroke-width:1.5;"/>
   </g>
   <g id="line2d_21">
    <path clip-path="url(#p091948d80b)" d="M 69.218182 140.044789 
L 85.237321 148.006904 
L 101.256459 155.559124 
L 117.275598 169.785013 
L 133.294737 179.982331 
L 149.313876 190.459952 
L 165.333014 200.908949 
L 181.352153 206.745849 
L 197.371292 213.792888 
L 213.390431 213.839501 
L 229.409569 212.375215 
L 245.428708 205.828841 
L 261.447847 199.679777 
L 277.466986 199.808383 
L 293.486124 198.528511 
L 309.505263 194.318512 
L 325.524402 190.893798 
L 341.543541 193.862853 
L 357.562679 194.711154 
L 373.581818 194.589969 
" style="fill:none;stroke:#7f7f7f;stroke-linecap:square;stroke-width:1.5;"/>
   </g>
   <g id="line2d_22">
    <path clip-path="url(#p091948d80b)" d="M 69.218182 161.664358 
L 85.237321 176.672579 
L 101.256459 183.149119 
L 117.275598 193.253988 
L 133.294737 199.585101 
L 149.313876 199.673314 
L 165.333014 201.465415 
L 181.352153 193.586061 
L 197.371292 190.377074 
L 213.390431 179.647043 
L 229.409569 179.09756 
L 245.428708 173.871664 
L 261.447847 184.531537 
L 277.466986 185.67662 
L 293.486124 185.238455 
L 309.505263 191.584558 
L 325.524402 190.545388 
L 341.543541 202.345868 
L 357.562679 198.528511 
L 373.581818 194.589969 
" style="fill:none;stroke:#bcbd22;stroke-linecap:square;stroke-width:1.5;"/>
   </g>
   <g id="line2d_23">
    <path clip-path="url(#p091948d80b)" d="M 69.218182 44.443636 
L 85.237321 60.076277 
L 101.256459 88.031633 
L 117.275598 105.985026 
L 133.294737 118.991727 
L 149.313876 121.851483 
L 165.333014 122.19869 
L 181.352153 132.915654 
L 197.371292 149.380886 
L 213.390431 163.27192 
L 229.409569 176.3733 
L 245.428708 182.291841 
L 261.447847 178.608575 
L 277.466986 174.047718 
L 293.486124 175.765755 
L 309.505263 190.033378 
L 325.524402 211.677184 
L 341.543541 212.283114 
L 357.562679 191.499727 
L 373.581818 194.589969 
" style="fill:none;stroke:#17becf;stroke-linecap:square;stroke-width:1.5;"/>
   </g>
   <g id="line2d_24">
    <path clip-path="url(#p091948d80b)" d="M 69.218182 154.41744 
L 85.237321 163.800687 
L 101.256459 169.832133 
L 117.275598 178.070943 
L 133.294737 181.944028 
L 149.313876 191.650267 
L 165.333014 196.904867 
L 181.352153 203.278067 
L 197.371292 205.279577 
L 213.390431 206.360026 
L 229.409569 207.745913 
L 245.428708 213.946802 
L 261.447847 214.282681 
L 277.466986 214.84533 
L 293.486124 200.110661 
L 309.505263 189.548634 
L 325.524402 192.287436 
L 341.543541 199.383545 
L 357.562679 196.771315 
L 373.581818 194.589969 
" style="fill:none;stroke:#1f77b4;stroke-linecap:square;stroke-width:1.5;"/>
   </g>
   <g id="line2d_25">
    <path clip-path="url(#p091948d80b)" d="M 69.218182 168.549537 
L 85.237321 173.318985 
L 101.256459 178.153566 
L 117.275598 183.544018 
L 133.294737 189.95366 
L 149.313876 195.310621 
L 165.333014 199.165355 
L 181.352153 203.345472 
L 197.371292 202.392996 
L 213.390431 195.697668 
L 229.409569 193.487177 
L 245.428708 191.492995 
L 261.447847 190.499944 
L 277.466986 193.754033 
L 293.486124 193.714737 
L 309.505263 195.103797 
L 325.524402 194.756599 
L 341.543541 196.205781 
L 357.562679 195.317084 
L 373.581818 194.589969 
" style="fill:none;stroke:#ff7f0e;stroke-linecap:square;stroke-width:1.5;"/>
   </g>
   <g id="line2d_26">
    <path clip-path="url(#p091948d80b)" d="M 69.218182 147.182034 
L 85.237321 154.803387 
L 101.256459 165.45747 
L 117.275598 175.441754 
L 133.294737 183.744775 
L 149.313876 186.724194 
L 165.333014 189.319617 
L 181.352153 187.743322 
L 197.371292 188.55087 
L 213.390431 191.002465 
L 229.409569 194.139157 
L 245.428708 201.113063 
L 261.447847 209.677616 
L 277.466986 216.443006 
L 293.486124 217.359457 
L 309.505263 213.814904 
L 325.524402 202.118644 
L 341.543541 195.559456 
L 357.562679 193.862853 
L 373.581818 194.589969 
" style="fill:none;stroke:#2ca02c;stroke-linecap:square;stroke-width:1.5;"/>
   </g>
   <g id="line2d_27">
    <path clip-path="url(#p091948d80b)" d="M 69.218182 183.322101 
L 85.237321 190.947005 
L 101.256459 195.177945 
L 117.275598 195.984655 
L 133.294737 195.131518 
L 149.313876 196.031273 
L 165.333014 200.080433 
L 181.352153 198.934018 
L 197.371292 192.99772 
L 213.390431 190.625887 
L 229.409569 193.928293 
L 245.428708 196.678556 
L 261.447847 199.710074 
L 277.466986 198.799325 
L 293.486124 196.542408 
L 309.505263 199.873675 
L 325.524402 199.710074 
L 341.543541 196.0442 
L 357.562679 199.437406 
L 373.581818 194.589969 
" style="fill:none;stroke:#d62728;stroke-linecap:square;stroke-width:1.5;"/>
   </g>
   <g id="patch_3">
    <path d="M 54 252 
L 54 34.56 
" style="fill:none;stroke:#000000;stroke-linecap:square;stroke-linejoin:miter;stroke-width:0.8;"/>
   </g>
   <g id="patch_4">
    <path d="M 388.8 252 
L 388.8 34.56 
" style="fill:none;stroke:#000000;stroke-linecap:square;stroke-linejoin:miter;stroke-width:0.8;"/>
   </g>
   <g id="patch_5">
    <path d="M 54 252 
L 388.8 252 
" style="fill:none;stroke:#000000;stroke-linecap:square;stroke-linejoin:miter;stroke-width:0.8;"/>
   </g>
   <g id="patch_6">
    <path d="M 54 34.56 
L 388.8 34.56 
" style="fill:none;stroke:#000000;stroke-linecap:square;stroke-linejoin:miter;stroke-width:0.8;"/>
   </g>
   <g id="text_14">
    <!-- timeinterval_autocorrelation varying systemsize L = 0 -->
    <g transform="translate(58.703438 28.56)scale(0.12 -0.12)">
     <defs>
      <path d="M 1172 4494 
L 1172 3500 
L 2356 3500 
L 2356 3053 
L 1172 3053 
L 1172 1153 
Q 1172 725 1289 603 
Q 1406 481 1766 481 
L 2356 481 
L 2356 0 
L 1766 0 
Q 1100 0 847 248 
Q 594 497 594 1153 
L 594 3053 
L 172 3053 
L 172 3500 
L 594 3500 
L 594 4494 
L 1172 4494 
z
" id="DejaVuSans-74" transform="scale(0.015625)"/>
      <path d="M 603 3500 
L 1178 3500 
L 1178 0 
L 603 0 
L 603 3500 
z
M 603 4863 
L 1178 4863 
L 1178 4134 
L 603 4134 
L 603 4863 
z
" id="DejaVuSans-69" transform="scale(0.015625)"/>
      <path d="M 3328 2828 
Q 3544 3216 3844 3400 
Q 4144 3584 4550 3584 
Q 5097 3584 5394 3201 
Q 5691 2819 5691 2113 
L 5691 0 
L 5113 0 
L 5113 2094 
Q 5113 2597 4934 2840 
Q 4756 3084 4391 3084 
Q 3944 3084 3684 2787 
Q 3425 2491 3425 1978 
L 3425 0 
L 2847 0 
L 2847 2094 
Q 2847 2600 2669 2842 
Q 2491 3084 2119 3084 
Q 1678 3084 1418 2786 
Q 1159 2488 1159 1978 
L 1159 0 
L 581 0 
L 581 3500 
L 1159 3500 
L 1159 2956 
Q 1356 3278 1631 3431 
Q 1906 3584 2284 3584 
Q 2666 3584 2933 3390 
Q 3200 3197 3328 2828 
z
" id="DejaVuSans-6d" transform="scale(0.015625)"/>
      <path d="M 3597 1894 
L 3597 1613 
L 953 1613 
Q 991 1019 1311 708 
Q 1631 397 2203 397 
Q 2534 397 2845 478 
Q 3156 559 3463 722 
L 3463 178 
Q 3153 47 2828 -22 
Q 2503 -91 2169 -91 
Q 1331 -91 842 396 
Q 353 884 353 1716 
Q 353 2575 817 3079 
Q 1281 3584 2069 3584 
Q 2775 3584 3186 3129 
Q 3597 2675 3597 1894 
z
M 3022 2063 
Q 3016 2534 2758 2815 
Q 2500 3097 2075 3097 
Q 1594 3097 1305 2825 
Q 1016 2553 972 2059 
L 3022 2063 
z
" id="DejaVuSans-65" transform="scale(0.015625)"/>
      <path d="M 3513 2113 
L 3513 0 
L 2938 0 
L 2938 2094 
Q 2938 2591 2744 2837 
Q 2550 3084 2163 3084 
Q 1697 3084 1428 2787 
Q 1159 2491 1159 1978 
L 1159 0 
L 581 0 
L 581 3500 
L 1159 3500 
L 1159 2956 
Q 1366 3272 1645 3428 
Q 1925 3584 2291 3584 
Q 2894 3584 3203 3211 
Q 3513 2838 3513 2113 
z
" id="DejaVuSans-6e" transform="scale(0.015625)"/>
      <path d="M 2631 2963 
Q 2534 3019 2420 3045 
Q 2306 3072 2169 3072 
Q 1681 3072 1420 2755 
Q 1159 2438 1159 1844 
L 1159 0 
L 581 0 
L 581 3500 
L 1159 3500 
L 1159 2956 
Q 1341 3275 1631 3429 
Q 1922 3584 2338 3584 
Q 2397 3584 2469 3576 
Q 2541 3569 2628 3553 
L 2631 2963 
z
" id="DejaVuSans-72" transform="scale(0.015625)"/>
      <path d="M 191 3500 
L 800 3500 
L 1894 563 
L 2988 3500 
L 3597 3500 
L 2284 0 
L 1503 0 
L 191 3500 
z
" id="DejaVuSans-76" transform="scale(0.015625)"/>
      <path d="M 2194 1759 
Q 1497 1759 1228 1600 
Q 959 1441 959 1056 
Q 959 750 1161 570 
Q 1363 391 1709 391 
Q 2188 391 2477 730 
Q 2766 1069 2766 1631 
L 2766 1759 
L 2194 1759 
z
M 3341 1997 
L 3341 0 
L 2766 0 
L 2766 531 
Q 2569 213 2275 61 
Q 1981 -91 1556 -91 
Q 1019 -91 701 211 
Q 384 513 384 1019 
Q 384 1609 779 1909 
Q 1175 2209 1959 2209 
L 2766 2209 
L 2766 2266 
Q 2766 2663 2505 2880 
Q 2244 3097 1772 3097 
Q 1472 3097 1187 3025 
Q 903 2953 641 2809 
L 641 3341 
Q 956 3463 1253 3523 
Q 1550 3584 1831 3584 
Q 2591 3584 2966 3190 
Q 3341 2797 3341 1997 
z
" id="DejaVuSans-61" transform="scale(0.015625)"/>
      <path d="M 603 4863 
L 1178 4863 
L 1178 0 
L 603 0 
L 603 4863 
z
" id="DejaVuSans-6c" transform="scale(0.015625)"/>
      <path d="M 3263 -1063 
L 3263 -1509 
L -63 -1509 
L -63 -1063 
L 3263 -1063 
z
" id="DejaVuSans-5f" transform="scale(0.015625)"/>
      <path d="M 544 1381 
L 544 3500 
L 1119 3500 
L 1119 1403 
Q 1119 906 1312 657 
Q 1506 409 1894 409 
Q 2359 409 2629 706 
Q 2900 1003 2900 1516 
L 2900 3500 
L 3475 3500 
L 3475 0 
L 2900 0 
L 2900 538 
Q 2691 219 2414 64 
Q 2138 -91 1772 -91 
Q 1169 -91 856 284 
Q 544 659 544 1381 
z
M 1991 3584 
L 1991 3584 
z
" id="DejaVuSans-75" transform="scale(0.015625)"/>
      <path d="M 1959 3097 
Q 1497 3097 1228 2736 
Q 959 2375 959 1747 
Q 959 1119 1226 758 
Q 1494 397 1959 397 
Q 2419 397 2687 759 
Q 2956 1122 2956 1747 
Q 2956 2369 2687 2733 
Q 2419 3097 1959 3097 
z
M 1959 3584 
Q 2709 3584 3137 3096 
Q 3566 2609 3566 1747 
Q 3566 888 3137 398 
Q 2709 -91 1959 -91 
Q 1206 -91 779 398 
Q 353 888 353 1747 
Q 353 2609 779 3096 
Q 1206 3584 1959 3584 
z
" id="DejaVuSans-6f" transform="scale(0.015625)"/>
      <path d="M 3122 3366 
L 3122 2828 
Q 2878 2963 2633 3030 
Q 2388 3097 2138 3097 
Q 1578 3097 1268 2742 
Q 959 2388 959 1747 
Q 959 1106 1268 751 
Q 1578 397 2138 397 
Q 2388 397 2633 464 
Q 2878 531 3122 666 
L 3122 134 
Q 2881 22 2623 -34 
Q 2366 -91 2075 -91 
Q 1284 -91 818 406 
Q 353 903 353 1747 
Q 353 2603 823 3093 
Q 1294 3584 2113 3584 
Q 2378 3584 2631 3529 
Q 2884 3475 3122 3366 
z
" id="DejaVuSans-63" transform="scale(0.015625)"/>
      <path id="DejaVuSans-20" transform="scale(0.015625)"/>
      <path d="M 2059 -325 
Q 1816 -950 1584 -1140 
Q 1353 -1331 966 -1331 
L 506 -1331 
L 506 -850 
L 844 -850 
Q 1081 -850 1212 -737 
Q 1344 -625 1503 -206 
L 1606 56 
L 191 3500 
L 800 3500 
L 1894 763 
L 2988 3500 
L 3597 3500 
L 2059 -325 
z
" id="DejaVuSans-79" transform="scale(0.015625)"/>
      <path d="M 2906 1791 
Q 2906 2416 2648 2759 
Q 2391 3103 1925 3103 
Q 1463 3103 1205 2759 
Q 947 2416 947 1791 
Q 947 1169 1205 825 
Q 1463 481 1925 481 
Q 2391 481 2648 825 
Q 2906 1169 2906 1791 
z
M 3481 434 
Q 3481 -459 3084 -895 
Q 2688 -1331 1869 -1331 
Q 1566 -1331 1297 -1286 
Q 1028 -1241 775 -1147 
L 775 -588 
Q 1028 -725 1275 -790 
Q 1522 -856 1778 -856 
Q 2344 -856 2625 -561 
Q 2906 -266 2906 331 
L 2906 616 
Q 2728 306 2450 153 
Q 2172 0 1784 0 
Q 1141 0 747 490 
Q 353 981 353 1791 
Q 353 2603 747 3093 
Q 1141 3584 1784 3584 
Q 2172 3584 2450 3431 
Q 2728 3278 2906 2969 
L 2906 3500 
L 3481 3500 
L 3481 434 
z
" id="DejaVuSans-67" transform="scale(0.015625)"/>
      <path d="M 2834 3397 
L 2834 2853 
Q 2591 2978 2328 3040 
Q 2066 3103 1784 3103 
Q 1356 3103 1142 2972 
Q 928 2841 928 2578 
Q 928 2378 1081 2264 
Q 1234 2150 1697 2047 
L 1894 2003 
Q 2506 1872 2764 1633 
Q 3022 1394 3022 966 
Q 3022 478 2636 193 
Q 2250 -91 1575 -91 
Q 1294 -91 989 -36 
Q 684 19 347 128 
L 347 722 
Q 666 556 975 473 
Q 1284 391 1588 391 
Q 1994 391 2212 530 
Q 2431 669 2431 922 
Q 2431 1156 2273 1281 
Q 2116 1406 1581 1522 
L 1381 1569 
Q 847 1681 609 1914 
Q 372 2147 372 2553 
Q 372 3047 722 3315 
Q 1072 3584 1716 3584 
Q 2034 3584 2315 3537 
Q 2597 3491 2834 3397 
z
" id="DejaVuSans-73" transform="scale(0.015625)"/>
      <path d="M 353 3500 
L 3084 3500 
L 3084 2975 
L 922 459 
L 3084 459 
L 3084 0 
L 275 0 
L 275 525 
L 2438 3041 
L 353 3041 
L 353 3500 
z
" id="DejaVuSans-7a" transform="scale(0.015625)"/>
      <path d="M 628 4666 
L 1259 4666 
L 1259 531 
L 3531 531 
L 3531 0 
L 628 0 
L 628 4666 
z
" id="DejaVuSans-4c" transform="scale(0.015625)"/>
      <path d="M 678 2906 
L 4684 2906 
L 4684 2381 
L 678 2381 
L 678 2906 
z
M 678 1631 
L 4684 1631 
L 4684 1100 
L 678 1100 
L 678 1631 
z
" id="DejaVuSans-3d" transform="scale(0.015625)"/>
     </defs>
     <use xlink:href="#DejaVuSans-74"/>
     <use x="39.208984" xlink:href="#DejaVuSans-69"/>
     <use x="66.992188" xlink:href="#DejaVuSans-6d"/>
     <use x="164.404297" xlink:href="#DejaVuSans-65"/>
     <use x="225.927734" xlink:href="#DejaVuSans-69"/>
     <use x="253.710938" xlink:href="#DejaVuSans-6e"/>
     <use x="317.089844" xlink:href="#DejaVuSans-74"/>
     <use x="356.298828" xlink:href="#DejaVuSans-65"/>
     <use x="417.822266" xlink:href="#DejaVuSans-72"/>
     <use x="458.935547" xlink:href="#DejaVuSans-76"/>
     <use x="518.115234" xlink:href="#DejaVuSans-61"/>
     <use x="579.394531" xlink:href="#DejaVuSans-6c"/>
     <use x="607.177734" xlink:href="#DejaVuSans-5f"/>
     <use x="657.177734" xlink:href="#DejaVuSans-61"/>
     <use x="718.457031" xlink:href="#DejaVuSans-75"/>
     <use x="781.835938" xlink:href="#DejaVuSans-74"/>
     <use x="821.044922" xlink:href="#DejaVuSans-6f"/>
     <use x="882.226562" xlink:href="#DejaVuSans-63"/>
     <use x="937.207031" xlink:href="#DejaVuSans-6f"/>
     <use x="998.388672" xlink:href="#DejaVuSans-72"/>
     <use x="1037.751953" xlink:href="#DejaVuSans-72"/>
     <use x="1076.615234" xlink:href="#DejaVuSans-65"/>
     <use x="1138.138672" xlink:href="#DejaVuSans-6c"/>
     <use x="1165.921875" xlink:href="#DejaVuSans-61"/>
     <use x="1227.201172" xlink:href="#DejaVuSans-74"/>
     <use x="1266.410156" xlink:href="#DejaVuSans-69"/>
     <use x="1294.193359" xlink:href="#DejaVuSans-6f"/>
     <use x="1355.375" xlink:href="#DejaVuSans-6e"/>
     <use x="1418.753906" xlink:href="#DejaVuSans-20"/>
     <use x="1450.541016" xlink:href="#DejaVuSans-76"/>
     <use x="1509.720703" xlink:href="#DejaVuSans-61"/>
     <use x="1571" xlink:href="#DejaVuSans-72"/>
     <use x="1612.113281" xlink:href="#DejaVuSans-79"/>
     <use x="1671.292969" xlink:href="#DejaVuSans-69"/>
     <use x="1699.076172" xlink:href="#DejaVuSans-6e"/>
     <use x="1762.455078" xlink:href="#DejaVuSans-67"/>
     <use x="1825.931641" xlink:href="#DejaVuSans-20"/>
     <use x="1857.71875" xlink:href="#DejaVuSans-73"/>
     <use x="1909.818359" xlink:href="#DejaVuSans-79"/>
     <use x="1968.998047" xlink:href="#DejaVuSans-73"/>
     <use x="2021.097656" xlink:href="#DejaVuSans-74"/>
     <use x="2060.306641" xlink:href="#DejaVuSans-65"/>
     <use x="2121.830078" xlink:href="#DejaVuSans-6d"/>
     <use x="2219.242188" xlink:href="#DejaVuSans-73"/>
     <use x="2271.341797" xlink:href="#DejaVuSans-69"/>
     <use x="2299.125" xlink:href="#DejaVuSans-7a"/>
     <use x="2351.615234" xlink:href="#DejaVuSans-65"/>
     <use x="2413.138672" xlink:href="#DejaVuSans-20"/>
     <use x="2444.925781" xlink:href="#DejaVuSans-4c"/>
     <use x="2500.638672" xlink:href="#DejaVuSans-20"/>
     <use x="2532.425781" xlink:href="#DejaVuSans-3d"/>
     <use x="2616.214844" xlink:href="#DejaVuSans-20"/>
     <use x="2648.001953" xlink:href="#DejaVuSans-30"/>
    </g>
   </g>
  </g>
 </g>
 <defs>
  <clipPath id="p091948d80b">
   <rect height="217.44" width="334.8" x="54" y="34.56"/>
  </clipPath>
 </defs>
</svg>
