<?xml version="1.0" encoding="utf-8" standalone="no"?>
<!DOCTYPE svg PUBLIC "-//W3C//DTD SVG 1.1//EN"
  "http://www.w3.org/Graphics/SVG/1.1/DTD/svg11.dtd">
<svg height="288pt" version="1.1" viewBox="0 0 432 288" width="432pt" xmlns="http://www.w3.org/2000/svg" xmlns:xlink="http://www.w3.org/1999/xlink">
 <metadata>
  <rdf:RDF xmlns:cc="http://creativecommons.org/ns#" xmlns:dc="http://purl.org/dc/elements/1.1/" xmlns:rdf="http://www.w3.org/1999/02/22-rdf-syntax-ns#">
   <cc:Work>
    <dc:type rdf:resource="http://purl.org/dc/dcmitype/StillImage"/>
    <dc:date>2021-09-05T02:06:00.272058</dc:date>
    <dc:format>image/svg+xml</dc:format>
    <dc:creator>
     <cc:Agent>
      <dc:title>Matplotlib v3.4.2, https://matplotlib.org/</dc:title>
     </cc:Agent>
    </dc:creator>
   </cc:Work>
  </rdf:RDF>
 </metadata>
 <defs>
  <style type="text/css">*{stroke-linecap:butt;stroke-linejoin:round;}</style>
 </defs>
 <g id="figure_1">
  <g id="patch_1">
   <path d="M 0 288 
L 432 288 
L 432 0 
L 0 0 
z
" style="fill:none;"/>
  </g>
  <g id="axes_1">
   <g id="patch_2">
    <path d="M 54 252 
L 388.8 252 
L 388.8 34.56 
L 54 34.56 
z
" style="fill:#ffffff;"/>
   </g>
   <g id="matplotlib.axis_1">
    <g id="xtick_1">
     <g id="line2d_1">
      <defs>
       <path d="M 0 0 
L 0 3.5 
" id="m2f25dcc897" style="stroke:#000000;stroke-width:0.8;"/>
      </defs>
      <g>
       <use style="stroke:#000000;stroke-width:0.8;" x="93.24689" xlink:href="#m2f25dcc897" y="252"/>
      </g>
     </g>
     <g id="text_1">
      <!-- 1.75 -->
      <g transform="translate(82.114077 266.598437)scale(0.1 -0.1)">
       <defs>
        <path d="M 794 531 
L 1825 531 
L 1825 4091 
L 703 3866 
L 703 4441 
L 1819 4666 
L 2450 4666 
L 2450 531 
L 3481 531 
L 3481 0 
L 794 0 
L 794 531 
z
" id="DejaVuSans-31" transform="scale(0.015625)"/>
        <path d="M 684 794 
L 1344 794 
L 1344 0 
L 684 0 
L 684 794 
z
" id="DejaVuSans-2e" transform="scale(0.015625)"/>
        <path d="M 525 4666 
L 3525 4666 
L 3525 4397 
L 1831 0 
L 1172 0 
L 2766 4134 
L 525 4134 
L 525 4666 
z
" id="DejaVuSans-37" transform="scale(0.015625)"/>
        <path d="M 691 4666 
L 3169 4666 
L 3169 4134 
L 1269 4134 
L 1269 2991 
Q 1406 3038 1543 3061 
Q 1681 3084 1819 3084 
Q 2600 3084 3056 2656 
Q 3513 2228 3513 1497 
Q 3513 744 3044 326 
Q 2575 -91 1722 -91 
Q 1428 -91 1123 -41 
Q 819 9 494 109 
L 494 744 
Q 775 591 1075 516 
Q 1375 441 1709 441 
Q 2250 441 2565 725 
Q 2881 1009 2881 1497 
Q 2881 1984 2565 2268 
Q 2250 2553 1709 2553 
Q 1456 2553 1204 2497 
Q 953 2441 691 2322 
L 691 4666 
z
" id="DejaVuSans-35" transform="scale(0.015625)"/>
       </defs>
       <use xlink:href="#DejaVuSans-31"/>
       <use x="63.623047" xlink:href="#DejaVuSans-2e"/>
       <use x="95.410156" xlink:href="#DejaVuSans-37"/>
       <use x="159.033203" xlink:href="#DejaVuSans-35"/>
      </g>
     </g>
    </g>
    <g id="xtick_2">
     <g id="line2d_2">
      <g>
       <use style="stroke:#000000;stroke-width:0.8;" x="133.294737" xlink:href="#m2f25dcc897" y="252"/>
      </g>
     </g>
     <g id="text_2">
      <!-- 2.00 -->
      <g transform="translate(122.161924 266.598437)scale(0.1 -0.1)">
       <defs>
        <path d="M 1228 531 
L 3431 531 
L 3431 0 
L 469 0 
L 469 531 
Q 828 903 1448 1529 
Q 2069 2156 2228 2338 
Q 2531 2678 2651 2914 
Q 2772 3150 2772 3378 
Q 2772 3750 2511 3984 
Q 2250 4219 1831 4219 
Q 1534 4219 1204 4116 
Q 875 4013 500 3803 
L 500 4441 
Q 881 4594 1212 4672 
Q 1544 4750 1819 4750 
Q 2544 4750 2975 4387 
Q 3406 4025 3406 3419 
Q 3406 3131 3298 2873 
Q 3191 2616 2906 2266 
Q 2828 2175 2409 1742 
Q 1991 1309 1228 531 
z
" id="DejaVuSans-32" transform="scale(0.015625)"/>
        <path d="M 2034 4250 
Q 1547 4250 1301 3770 
Q 1056 3291 1056 2328 
Q 1056 1369 1301 889 
Q 1547 409 2034 409 
Q 2525 409 2770 889 
Q 3016 1369 3016 2328 
Q 3016 3291 2770 3770 
Q 2525 4250 2034 4250 
z
M 2034 4750 
Q 2819 4750 3233 4129 
Q 3647 3509 3647 2328 
Q 3647 1150 3233 529 
Q 2819 -91 2034 -91 
Q 1250 -91 836 529 
Q 422 1150 422 2328 
Q 422 3509 836 4129 
Q 1250 4750 2034 4750 
z
" id="DejaVuSans-30" transform="scale(0.015625)"/>
       </defs>
       <use xlink:href="#DejaVuSans-32"/>
       <use x="63.623047" xlink:href="#DejaVuSans-2e"/>
       <use x="95.410156" xlink:href="#DejaVuSans-30"/>
       <use x="159.033203" xlink:href="#DejaVuSans-30"/>
      </g>
     </g>
    </g>
    <g id="xtick_3">
     <g id="line2d_3">
      <g>
       <use style="stroke:#000000;stroke-width:0.8;" x="173.342584" xlink:href="#m2f25dcc897" y="252"/>
      </g>
     </g>
     <g id="text_3">
      <!-- 2.25 -->
      <g transform="translate(162.209771 266.598437)scale(0.1 -0.1)">
       <use xlink:href="#DejaVuSans-32"/>
       <use x="63.623047" xlink:href="#DejaVuSans-2e"/>
       <use x="95.410156" xlink:href="#DejaVuSans-32"/>
       <use x="159.033203" xlink:href="#DejaVuSans-35"/>
      </g>
     </g>
    </g>
    <g id="xtick_4">
     <g id="line2d_4">
      <g>
       <use style="stroke:#000000;stroke-width:0.8;" x="213.390431" xlink:href="#m2f25dcc897" y="252"/>
      </g>
     </g>
     <g id="text_4">
      <!-- 2.50 -->
      <g transform="translate(202.257618 266.598437)scale(0.1 -0.1)">
       <use xlink:href="#DejaVuSans-32"/>
       <use x="63.623047" xlink:href="#DejaVuSans-2e"/>
       <use x="95.410156" xlink:href="#DejaVuSans-35"/>
       <use x="159.033203" xlink:href="#DejaVuSans-30"/>
      </g>
     </g>
    </g>
    <g id="xtick_5">
     <g id="line2d_5">
      <g>
       <use style="stroke:#000000;stroke-width:0.8;" x="253.438278" xlink:href="#m2f25dcc897" y="252"/>
      </g>
     </g>
     <g id="text_5">
      <!-- 2.75 -->
      <g transform="translate(242.305465 266.598437)scale(0.1 -0.1)">
       <use xlink:href="#DejaVuSans-32"/>
       <use x="63.623047" xlink:href="#DejaVuSans-2e"/>
       <use x="95.410156" xlink:href="#DejaVuSans-37"/>
       <use x="159.033203" xlink:href="#DejaVuSans-35"/>
      </g>
     </g>
    </g>
    <g id="xtick_6">
     <g id="line2d_6">
      <g>
       <use style="stroke:#000000;stroke-width:0.8;" x="293.486124" xlink:href="#m2f25dcc897" y="252"/>
      </g>
     </g>
     <g id="text_6">
      <!-- 3.00 -->
      <g transform="translate(282.353312 266.598437)scale(0.1 -0.1)">
       <defs>
        <path d="M 2597 2516 
Q 3050 2419 3304 2112 
Q 3559 1806 3559 1356 
Q 3559 666 3084 287 
Q 2609 -91 1734 -91 
Q 1441 -91 1130 -33 
Q 819 25 488 141 
L 488 750 
Q 750 597 1062 519 
Q 1375 441 1716 441 
Q 2309 441 2620 675 
Q 2931 909 2931 1356 
Q 2931 1769 2642 2001 
Q 2353 2234 1838 2234 
L 1294 2234 
L 1294 2753 
L 1863 2753 
Q 2328 2753 2575 2939 
Q 2822 3125 2822 3475 
Q 2822 3834 2567 4026 
Q 2313 4219 1838 4219 
Q 1578 4219 1281 4162 
Q 984 4106 628 3988 
L 628 4550 
Q 988 4650 1302 4700 
Q 1616 4750 1894 4750 
Q 2613 4750 3031 4423 
Q 3450 4097 3450 3541 
Q 3450 3153 3228 2886 
Q 3006 2619 2597 2516 
z
" id="DejaVuSans-33" transform="scale(0.015625)"/>
       </defs>
       <use xlink:href="#DejaVuSans-33"/>
       <use x="63.623047" xlink:href="#DejaVuSans-2e"/>
       <use x="95.410156" xlink:href="#DejaVuSans-30"/>
       <use x="159.033203" xlink:href="#DejaVuSans-30"/>
      </g>
     </g>
    </g>
    <g id="xtick_7">
     <g id="line2d_7">
      <g>
       <use style="stroke:#000000;stroke-width:0.8;" x="333.533971" xlink:href="#m2f25dcc897" y="252"/>
      </g>
     </g>
     <g id="text_7">
      <!-- 3.25 -->
      <g transform="translate(322.401159 266.598437)scale(0.1 -0.1)">
       <use xlink:href="#DejaVuSans-33"/>
       <use x="63.623047" xlink:href="#DejaVuSans-2e"/>
       <use x="95.410156" xlink:href="#DejaVuSans-32"/>
       <use x="159.033203" xlink:href="#DejaVuSans-35"/>
      </g>
     </g>
    </g>
    <g id="xtick_8">
     <g id="line2d_8">
      <g>
       <use style="stroke:#000000;stroke-width:0.8;" x="373.581818" xlink:href="#m2f25dcc897" y="252"/>
      </g>
     </g>
     <g id="text_8">
      <!-- 3.50 -->
      <g transform="translate(362.449006 266.598437)scale(0.1 -0.1)">
       <use xlink:href="#DejaVuSans-33"/>
       <use x="63.623047" xlink:href="#DejaVuSans-2e"/>
       <use x="95.410156" xlink:href="#DejaVuSans-35"/>
       <use x="159.033203" xlink:href="#DejaVuSans-30"/>
      </g>
     </g>
    </g>
    <g id="text_9">
     <!-- $T$ -->
     <g transform="translate(218.3 280.276563)scale(0.1 -0.1)">
      <defs>
       <path d="M 378 4666 
L 4325 4666 
L 4225 4134 
L 2559 4134 
L 1759 0 
L 1125 0 
L 1925 4134 
L 275 4134 
L 378 4666 
z
" id="DejaVuSans-Oblique-54" transform="scale(0.015625)"/>
      </defs>
      <use transform="translate(0 0.09375)" xlink:href="#DejaVuSans-Oblique-54"/>
     </g>
    </g>
   </g>
   <g id="matplotlib.axis_2">
    <g id="ytick_1">
     <g id="line2d_9">
      <defs>
       <path d="M 0 0 
L -3.5 0 
" id="m70432a3f62" style="stroke:#000000;stroke-width:0.8;"/>
      </defs>
      <g>
       <use style="stroke:#000000;stroke-width:0.8;" x="54" xlink:href="#m70432a3f62" y="219.127309"/>
      </g>
     </g>
     <g id="text_10">
      <!-- 0.2 -->
      <g transform="translate(31.096875 222.926528)scale(0.1 -0.1)">
       <use xlink:href="#DejaVuSans-30"/>
       <use x="63.623047" xlink:href="#DejaVuSans-2e"/>
       <use x="95.410156" xlink:href="#DejaVuSans-32"/>
      </g>
     </g>
    </g>
    <g id="ytick_2">
     <g id="line2d_10">
      <g>
       <use style="stroke:#000000;stroke-width:0.8;" x="54" xlink:href="#m70432a3f62" y="174.346397"/>
      </g>
     </g>
     <g id="text_11">
      <!-- 0.4 -->
      <g transform="translate(31.096875 178.145616)scale(0.1 -0.1)">
       <defs>
        <path d="M 2419 4116 
L 825 1625 
L 2419 1625 
L 2419 4116 
z
M 2253 4666 
L 3047 4666 
L 3047 1625 
L 3713 1625 
L 3713 1100 
L 3047 1100 
L 3047 0 
L 2419 0 
L 2419 1100 
L 313 1100 
L 313 1709 
L 2253 4666 
z
" id="DejaVuSans-34" transform="scale(0.015625)"/>
       </defs>
       <use xlink:href="#DejaVuSans-30"/>
       <use x="63.623047" xlink:href="#DejaVuSans-2e"/>
       <use x="95.410156" xlink:href="#DejaVuSans-34"/>
      </g>
     </g>
    </g>
    <g id="ytick_3">
     <g id="line2d_11">
      <g>
       <use style="stroke:#000000;stroke-width:0.8;" x="54" xlink:href="#m70432a3f62" y="129.565485"/>
      </g>
     </g>
     <g id="text_12">
      <!-- 0.6 -->
      <g transform="translate(31.096875 133.364704)scale(0.1 -0.1)">
       <defs>
        <path d="M 2113 2584 
Q 1688 2584 1439 2293 
Q 1191 2003 1191 1497 
Q 1191 994 1439 701 
Q 1688 409 2113 409 
Q 2538 409 2786 701 
Q 3034 994 3034 1497 
Q 3034 2003 2786 2293 
Q 2538 2584 2113 2584 
z
M 3366 4563 
L 3366 3988 
Q 3128 4100 2886 4159 
Q 2644 4219 2406 4219 
Q 1781 4219 1451 3797 
Q 1122 3375 1075 2522 
Q 1259 2794 1537 2939 
Q 1816 3084 2150 3084 
Q 2853 3084 3261 2657 
Q 3669 2231 3669 1497 
Q 3669 778 3244 343 
Q 2819 -91 2113 -91 
Q 1303 -91 875 529 
Q 447 1150 447 2328 
Q 447 3434 972 4092 
Q 1497 4750 2381 4750 
Q 2619 4750 2861 4703 
Q 3103 4656 3366 4563 
z
" id="DejaVuSans-36" transform="scale(0.015625)"/>
       </defs>
       <use xlink:href="#DejaVuSans-30"/>
       <use x="63.623047" xlink:href="#DejaVuSans-2e"/>
       <use x="95.410156" xlink:href="#DejaVuSans-36"/>
      </g>
     </g>
    </g>
    <g id="ytick_4">
     <g id="line2d_12">
      <g>
       <use style="stroke:#000000;stroke-width:0.8;" x="54" xlink:href="#m70432a3f62" y="84.784574"/>
      </g>
     </g>
     <g id="text_13">
      <!-- 0.8 -->
      <g transform="translate(31.096875 88.583792)scale(0.1 -0.1)">
       <defs>
        <path d="M 2034 2216 
Q 1584 2216 1326 1975 
Q 1069 1734 1069 1313 
Q 1069 891 1326 650 
Q 1584 409 2034 409 
Q 2484 409 2743 651 
Q 3003 894 3003 1313 
Q 3003 1734 2745 1975 
Q 2488 2216 2034 2216 
z
M 1403 2484 
Q 997 2584 770 2862 
Q 544 3141 544 3541 
Q 544 4100 942 4425 
Q 1341 4750 2034 4750 
Q 2731 4750 3128 4425 
Q 3525 4100 3525 3541 
Q 3525 3141 3298 2862 
Q 3072 2584 2669 2484 
Q 3125 2378 3379 2068 
Q 3634 1759 3634 1313 
Q 3634 634 3220 271 
Q 2806 -91 2034 -91 
Q 1263 -91 848 271 
Q 434 634 434 1313 
Q 434 1759 690 2068 
Q 947 2378 1403 2484 
z
M 1172 3481 
Q 1172 3119 1398 2916 
Q 1625 2713 2034 2713 
Q 2441 2713 2670 2916 
Q 2900 3119 2900 3481 
Q 2900 3844 2670 4047 
Q 2441 4250 2034 4250 
Q 1625 4250 1398 4047 
Q 1172 3844 1172 3481 
z
" id="DejaVuSans-38" transform="scale(0.015625)"/>
       </defs>
       <use xlink:href="#DejaVuSans-30"/>
       <use x="63.623047" xlink:href="#DejaVuSans-2e"/>
       <use x="95.410156" xlink:href="#DejaVuSans-38"/>
      </g>
     </g>
    </g>
    <g id="ytick_5">
     <g id="line2d_13">
      <g>
       <use style="stroke:#000000;stroke-width:0.8;" x="54" xlink:href="#m70432a3f62" y="40.003662"/>
      </g>
     </g>
     <g id="text_14">
      <!-- 1.0 -->
      <g transform="translate(31.096875 43.802881)scale(0.1 -0.1)">
       <use xlink:href="#DejaVuSans-31"/>
       <use x="63.623047" xlink:href="#DejaVuSans-2e"/>
       <use x="95.410156" xlink:href="#DejaVuSans-30"/>
      </g>
     </g>
    </g>
    <g id="text_15">
     <!-- $M$ -->
     <g transform="translate(25.017187 147.63)rotate(-90)scale(0.1 -0.1)">
      <defs>
       <path d="M 1081 4666 
L 2028 4666 
L 2572 1522 
L 4378 4666 
L 5350 4666 
L 4441 0 
L 3828 0 
L 4622 4091 
L 2791 897 
L 2175 897 
L 1581 4103 
L 788 0 
L 172 0 
L 1081 4666 
z
" id="DejaVuSans-Oblique-4d" transform="scale(0.015625)"/>
      </defs>
      <use transform="translate(0 0.09375)" xlink:href="#DejaVuSans-Oblique-4d"/>
     </g>
    </g>
   </g>
   <g id="LineCollection_1">
    <path clip-path="url(#pe8295bded3)" d="M 373.581818 242.116364 
L 373.581818 240.671528 
" style="fill:none;stroke:#ff6347;stroke-width:1.5;"/>
    <path clip-path="url(#pe8295bded3)" d="M 357.562679 241.159741 
L 357.562679 240.041675 
" style="fill:none;stroke:#ff6347;stroke-width:1.5;"/>
    <path clip-path="url(#pe8295bded3)" d="M 341.543541 240.61937 
L 341.543541 238.803012 
" style="fill:none;stroke:#ff6347;stroke-width:1.5;"/>
    <path clip-path="url(#pe8295bded3)" d="M 325.524402 238.511392 
L 325.524402 236.986056 
" style="fill:none;stroke:#ff6347;stroke-width:1.5;"/>
    <path clip-path="url(#pe8295bded3)" d="M 309.505263 237.02477 
L 309.505263 235.200648 
" style="fill:none;stroke:#ff6347;stroke-width:1.5;"/>
    <path clip-path="url(#pe8295bded3)" d="M 293.486124 234.360968 
L 293.486124 231.97061 
" style="fill:none;stroke:#ff6347;stroke-width:1.5;"/>
    <path clip-path="url(#pe8295bded3)" d="M 277.466986 230.972023 
L 277.466986 228.703768 
" style="fill:none;stroke:#ff6347;stroke-width:1.5;"/>
    <path clip-path="url(#pe8295bded3)" d="M 261.447847 227.15107 
L 261.447847 223.474163 
" style="fill:none;stroke:#ff6347;stroke-width:1.5;"/>
    <path clip-path="url(#pe8295bded3)" d="M 245.428708 220.759557 
L 245.428708 215.948553 
" style="fill:none;stroke:#ff6347;stroke-width:1.5;"/>
    <path clip-path="url(#pe8295bded3)" d="M 229.409569 214.087777 
L 229.409569 203.808207 
" style="fill:none;stroke:#ff6347;stroke-width:1.5;"/>
    <path clip-path="url(#pe8295bded3)" d="M 213.390431 201.141846 
L 213.390431 187.238927 
" style="fill:none;stroke:#ff6347;stroke-width:1.5;"/>
    <path clip-path="url(#pe8295bded3)" d="M 197.371292 169.85445 
L 197.371292 152.374617 
" style="fill:none;stroke:#ff6347;stroke-width:1.5;"/>
    <path clip-path="url(#pe8295bded3)" d="M 181.352153 129.198986 
L 181.352153 113.208106 
" style="fill:none;stroke:#ff6347;stroke-width:1.5;"/>
    <path clip-path="url(#pe8295bded3)" d="M 165.333014 92.87791 
L 165.333014 83.618956 
" style="fill:none;stroke:#ff6347;stroke-width:1.5;"/>
    <path clip-path="url(#pe8295bded3)" d="M 149.313876 69.399432 
L 149.313876 67.281494 
" style="fill:none;stroke:#ff6347;stroke-width:1.5;"/>
    <path clip-path="url(#pe8295bded3)" d="M 133.294737 60.392512 
L 133.294737 59.222857 
" style="fill:none;stroke:#ff6347;stroke-width:1.5;"/>
    <path clip-path="url(#pe8295bded3)" d="M 117.275598 54.231664 
L 117.275598 53.41511 
" style="fill:none;stroke:#ff6347;stroke-width:1.5;"/>
    <path clip-path="url(#pe8295bded3)" d="M 101.256459 49.750834 
L 101.256459 49.343682 
" style="fill:none;stroke:#ff6347;stroke-width:1.5;"/>
    <path clip-path="url(#pe8295bded3)" d="M 85.237321 46.793297 
L 85.237321 46.52672 
" style="fill:none;stroke:#ff6347;stroke-width:1.5;"/>
    <path clip-path="url(#pe8295bded3)" d="M 69.218182 44.680745 
L 69.218182 44.443636 
" style="fill:none;stroke:#ff6347;stroke-width:1.5;"/>
   </g>
   <g id="line2d_14">
    <path clip-path="url(#pe8295bded3)" d="M 373.581818 241.393946 
L 357.562679 240.600708 
L 341.543541 239.711191 
L 325.524402 237.748724 
L 309.505263 236.112709 
L 293.486124 233.165789 
L 277.466986 229.837896 
L 261.447847 225.312617 
L 245.428708 218.354055 
L 229.409569 208.947992 
L 213.390431 194.190387 
L 197.371292 161.114533 
L 181.352153 121.203546 
L 165.333014 88.248433 
L 149.313876 68.340463 
L 133.294737 59.807684 
L 117.275598 53.823387 
L 101.256459 49.547258 
L 85.237321 46.660009 
L 69.218182 44.562191 
" style="fill:none;stroke:#ff6347;stroke-linecap:square;stroke-width:1.5;"/>
    <defs>
     <path d="M -1.5 3 
L 0 1.5 
L 1.5 3 
L 3 1.5 
L 1.5 0 
L 3 -1.5 
L 1.5 -3 
L 0 -1.5 
L -1.5 -3 
L -3 -1.5 
L -1.5 0 
L -3 1.5 
z
" id="m11485801ac" style="stroke:#ff6347;stroke-linejoin:miter;"/>
    </defs>
    <g clip-path="url(#pe8295bded3)">
     <use style="fill:#ff6347;stroke:#ff6347;stroke-linejoin:miter;" x="373.581818" xlink:href="#m11485801ac" y="241.393946"/>
     <use style="fill:#ff6347;stroke:#ff6347;stroke-linejoin:miter;" x="357.562679" xlink:href="#m11485801ac" y="240.600708"/>
     <use style="fill:#ff6347;stroke:#ff6347;stroke-linejoin:miter;" x="341.543541" xlink:href="#m11485801ac" y="239.711191"/>
     <use style="fill:#ff6347;stroke:#ff6347;stroke-linejoin:miter;" x="325.524402" xlink:href="#m11485801ac" y="237.748724"/>
     <use style="fill:#ff6347;stroke:#ff6347;stroke-linejoin:miter;" x="309.505263" xlink:href="#m11485801ac" y="236.112709"/>
     <use style="fill:#ff6347;stroke:#ff6347;stroke-linejoin:miter;" x="293.486124" xlink:href="#m11485801ac" y="233.165789"/>
     <use style="fill:#ff6347;stroke:#ff6347;stroke-linejoin:miter;" x="277.466986" xlink:href="#m11485801ac" y="229.837896"/>
     <use style="fill:#ff6347;stroke:#ff6347;stroke-linejoin:miter;" x="261.447847" xlink:href="#m11485801ac" y="225.312617"/>
     <use style="fill:#ff6347;stroke:#ff6347;stroke-linejoin:miter;" x="245.428708" xlink:href="#m11485801ac" y="218.354055"/>
     <use style="fill:#ff6347;stroke:#ff6347;stroke-linejoin:miter;" x="229.409569" xlink:href="#m11485801ac" y="208.947992"/>
     <use style="fill:#ff6347;stroke:#ff6347;stroke-linejoin:miter;" x="213.390431" xlink:href="#m11485801ac" y="194.190387"/>
     <use style="fill:#ff6347;stroke:#ff6347;stroke-linejoin:miter;" x="197.371292" xlink:href="#m11485801ac" y="161.114533"/>
     <use style="fill:#ff6347;stroke:#ff6347;stroke-linejoin:miter;" x="181.352153" xlink:href="#m11485801ac" y="121.203546"/>
     <use style="fill:#ff6347;stroke:#ff6347;stroke-linejoin:miter;" x="165.333014" xlink:href="#m11485801ac" y="88.248433"/>
     <use style="fill:#ff6347;stroke:#ff6347;stroke-linejoin:miter;" x="149.313876" xlink:href="#m11485801ac" y="68.340463"/>
     <use style="fill:#ff6347;stroke:#ff6347;stroke-linejoin:miter;" x="133.294737" xlink:href="#m11485801ac" y="59.807684"/>
     <use style="fill:#ff6347;stroke:#ff6347;stroke-linejoin:miter;" x="117.275598" xlink:href="#m11485801ac" y="53.823387"/>
     <use style="fill:#ff6347;stroke:#ff6347;stroke-linejoin:miter;" x="101.256459" xlink:href="#m11485801ac" y="49.547258"/>
     <use style="fill:#ff6347;stroke:#ff6347;stroke-linejoin:miter;" x="85.237321" xlink:href="#m11485801ac" y="46.660009"/>
     <use style="fill:#ff6347;stroke:#ff6347;stroke-linejoin:miter;" x="69.218182" xlink:href="#m11485801ac" y="44.562191"/>
    </g>
   </g>
   <g id="patch_3">
    <path d="M 54 252 
L 54 34.56 
" style="fill:none;stroke:#000000;stroke-linecap:square;stroke-linejoin:miter;stroke-width:0.8;"/>
   </g>
   <g id="patch_4">
    <path d="M 388.8 252 
L 388.8 34.56 
" style="fill:none;stroke:#000000;stroke-linecap:square;stroke-linejoin:miter;stroke-width:0.8;"/>
   </g>
   <g id="patch_5">
    <path d="M 54 252 
L 388.8 252 
" style="fill:none;stroke:#000000;stroke-linecap:square;stroke-linejoin:miter;stroke-width:0.8;"/>
   </g>
   <g id="patch_6">
    <path d="M 54 34.56 
L 388.8 34.56 
" style="fill:none;stroke:#000000;stroke-linecap:square;stroke-linejoin:miter;stroke-width:0.8;"/>
   </g>
  </g>
 </g>
 <defs>
  <clipPath id="pe8295bded3">
   <rect height="217.44" width="334.8" x="54" y="34.56"/>
  </clipPath>
 </defs>
</svg>
